<?xml version="1.0" encoding="UTF-8" standalone="no"?>
<!-- Created with Inkscape (http://www.inkscape.org/) -->

<svg
   xmlns:dc="http://purl.org/dc/elements/1.1/"
   xmlns:cc="http://creativecommons.org/ns#"
   xmlns:rdf="http://www.w3.org/1999/02/22-rdf-syntax-ns#"
   xmlns:svg="http://www.w3.org/2000/svg"
   xmlns="http://www.w3.org/2000/svg"
   xmlns:sodipodi="http://sodipodi.sourceforge.net/DTD/sodipodi-0.dtd"
   xmlns:inkscape="http://www.inkscape.org/namespaces/inkscape"
   width="129.13789mm"
   height="288.93164mm"
   viewBox="0 0 457.57522 1023.7735"
   id="svg3364"
   version="1.1"
   inkscape:version="0.91 r13725"
   sodipodi:docname="malcolmblog.svg">
  <defs
     id="defs3366" />
  <sodipodi:namedview
     id="base"
     pagecolor="#ffffff"
     bordercolor="#666666"
     borderopacity="1.0"
     inkscape:pageopacity="0.0"
     inkscape:pageshadow="2"
     inkscape:zoom="0.35"
     inkscape:cx="586.18993"
     inkscape:cy="314.13827"
     inkscape:document-units="px"
     inkscape:current-layer="g16"
     showgrid="false"
     fit-margin-top="0"
     fit-margin-left="0"
     fit-margin-right="0"
     fit-margin-bottom="0"
     inkscape:window-width="1280"
     inkscape:window-height="776"
     inkscape:window-x="0"
     inkscape:window-y="24"
     inkscape:window-maximized="1" />
  <metadata
     id="metadata3369">
    <rdf:RDF>
      <cc:Work
         rdf:about="">
        <dc:format>image/svg+xml</dc:format>
        <dc:type
           rdf:resource="http://purl.org/dc/dcmitype/StillImage" />
        <dc:title></dc:title>
      </cc:Work>
    </rdf:RDF>
  </metadata>
  <g
     inkscape:label="Layer 1"
     inkscape:groupmode="layer"
     id="layer1"
     transform="translate(856.83302,-38.516221)">
    <g
       id="g16"
       transform="matrix(568.37971,0,0,-1021.25,92.953009,1037.2729)">
      <path
         style="fill:#000000"
         d="m -1.1855084,-0.02119175 c -0.00308,9.7182e-4 -0.00595,0.003447 -0.00611,0.0052616 -1.973e-4,0.0022468 -0.00207,0.0052866 -0.00352,0.005725 -6.073e-4,1.8354e-4 -9.988e-4,7.6617e-4 -8.737e-4,0.00129504 2.384e-4,0.0010075 -0.00258,0.00454617 -0.00369,0.00462755 -3.52e-4,2.58e-5 -0.00138,0.00121316 -0.00227,0.00263798 -9.033e-4,0.001425539 -0.00209,0.00286141 -0.00263,0.00319101 -5.488e-4,3.2982e-4 -9.3e-4,8.8653e-4 -8.47e-4,0.00123714 8.29e-5,3.506e-4 -0.00129,0.00228833 -0.00305,0.0043049 -0.00176,0.00201729 -0.00315,0.00386381 -0.00309,0.00410374 5.68e-5,2.4002e-4 -8.673e-4,0.0016629 -0.00206,0.0031621 -0.00119,0.0014991 -0.0024,0.0032443 -0.0027,0.003879 -2.993e-4,6.3435e-4 -0.0016,0.0022491 -0.00288,0.0035884 -0.00594,0.0061906 -0.00756,0.0080527 -0.00943,0.01087723 -7.804e-4,0.0011777 -0.00173,0.0025715 -0.00212,0.0030981 -3.828e-4,5.2602e-4 -0.00132,0.0021668 -0.00208,0.0036455 -7.596e-4,0.0014788 -0.00203,0.0031891 -0.00281,0.0038 -7.82e-4,6.1084e-4 -0.00136,0.0013732 -0.00128,0.0016942 7.6e-5,3.2098e-4 -2.217e-4,6.0993e-4 -6.614e-4,6.4216e-4 -4.398e-4,3.224e-5 -7.397e-4,3.1159e-4 -6.666e-4,6.2076e-4 7.32e-5,3.0923e-4 -8.798e-4,0.0016952 -0.00212,0.0030798 -0.00124,0.0013846 -0.00221,0.0027006 -0.00215,0.0029241 1.513e-4,6.3972e-4 -0.00289,0.004667 -0.00405,0.0053632 -5.751e-4,3.4556e-4 -9.837e-4,8.7276e-4 -9.129e-4,0.001172 7.08e-5,2.992e-4 -5.051e-4,9.5918e-4 -0.00128,0.0014664 -7.747e-4,5.0744e-4 -0.00136,0.0011074 -0.00131,0.0013334 1.098e-4,4.6421e-4 -0.00451,0.0089294 -0.0051,0.009322 -7.476e-4,5.076e-4 -0.00492,0.0055882 -0.00526,0.0063926 -1.869e-4,4.5437e-4 -0.00157,0.0021855 -0.00308,0.0038477 -0.0015,0.0016614 -0.00345,0.0042449 -0.00432,0.0057402 -8.667e-4,0.0014948 -0.00193,0.0027449 -0.00236,0.0027762 -4.288e-4,3.143e-5 -9.245e-4,5.2613e-4 -0.00111,0.0011002 -1.8e-4,5.7342e-4 -0.00202,0.0029702 -0.00409,0.0053265 -0.00206,0.0023562 -0.00374,0.0043719 -0.00371,0.004479 2.55e-5,1.0741e-4 -0.00109,0.001339 -0.00246,0.002736 -0.00137,0.001397 -0.00268,0.002859 -0.0029,0.003249 -2.199e-4,3.8961e-4 -0.00125,0.001688 -0.00229,0.002884 -0.00104,0.001197 -0.00213,0.002609 -0.00241,0.003138 -2.845e-4,5.2907e-4 -0.00103,0.001271 -0.00166,0.001649 -6.283e-4,3.7757e-4 -0.0011,9.1272e-4 -0.00104,0.00119 5.66e-5,2.7661e-4 -0.00135,0.001666 -0.00313,0.003088 -0.00178,0.001422 -0.00388,0.003205 -0.00468,0.003965 -7.916e-4,7.5876e-4 -0.00222,0.002077 -0.00317,0.002929 -9.482e-4,8.524e-4 -0.00168,0.001762 -0.00162,0.00202 6.11e-5,2.5839e-4 -3.028e-4,6.6312e-4 -8.06e-4,8.9911e-4 -0.00104,4.8346e-4 -0.00423,0.003522 -0.00613,0.005838 -0.0021,0.00255 -0.00368,0.004214 -0.00583,0.006129 -0.00313,0.002791 -0.00511,0.004717 -0.00814,0.007944 -0.00463,0.004928 -0.00982,0.010835 -0.00976,0.0111111 3.39e-5,1.4325e-4 -3.821e-4,6.5179e-4 -9.229e-4,0.00113 -5.423e-4,4.7834e-4 -0.00188,0.001794 -0.00295,0.002921 -0.00108,0.001128 -0.003,0.002452 -0.00426,0.00294 -0.00225,8.6965e-4 -0.00247,8.5645e-4 -0.010533,-6.1691e-4 -0.00453,-8.277e-4 -0.00945,-0.001888 -0.010944,-0.002356 -0.00149,-4.6732e-4 -0.00493,-0.001101 -0.00766,-0.001408 -0.00273,-3.0665e-4 -0.00871,-0.00102 -0.013327,-0.001583 -0.0046,-5.6429e-4 -0.0095,-0.0011 -0.01088,-0.001191 -0.00137,-9.131e-5 -0.0043,-5.6403e-4 -0.0065,-0.001051 -0.00425,-9.3747e-4 -0.014284,-0.001537 -0.01944,-0.001159 -0.00433,3.1755e-4 -0.00624,0.001878 -0.0056,0.004575 6.186e-4,0.002614 -0.00117,0.005131 -0.00858,0.0120821 -0.00144,0.00135 -0.00255,0.002745 -0.00246,0.003099 8.13e-5,3.539e-4 -5.886e-4,0.001218 -0.00149,0.00192 -9.03e-4,7.0229e-4 -0.00265,0.002776 -0.00389,0.00461 -0.00124,0.001834 -0.00334,0.004331 -0.00469,0.00555 -0.00135,0.001219 -0.00308,0.00318 -0.00387,0.004359 -7.803e-4,0.001178 -0.0021,0.002701 -0.00294,0.003385 -0.00126,0.001035 -0.0077,0.008334 -0.012109,0.0137115 -0.00164,0.001997 -0.00954,0.008427 -0.015703,0.0127731 -0.0052,0.003662 -0.011991,0.009822 -0.011788,0.010681 5.44e-5,2.3019e-4 -8.823e-4,0.001088 -0.00208,0.001907 -0.0012,8.1911e-4 -0.00263,0.002362 -0.00318,0.00343 -5.508e-4,0.001067 -0.00207,0.002977 -0.00337,0.004243 -0.0013,0.001267 -0.00233,0.002539 -0.00228,0.002827 5.42e-5,2.882e-4 -5.494e-4,0.001591 -0.00134,0.002893 -7.912e-4,0.001303 -0.00141,0.00257 -0.00136,0.002816 6.5e-5,3.7859e-4 -0.00289,0.003531 -0.00679,0.007268 -5.517e-4,5.2682e-4 -9.623e-4,0.001134 -9.114e-4,0.001349 5.09e-5,2.1498e-4 -9.897e-4,0.001359 -0.0023,0.00254 -0.00131,0.001182 -0.0037,0.00417 -0.0053,0.006639 -0.00294,0.004565 -0.010167,0.0132114 -0.01255,0.0150313 -7.216e-4,5.5086e-4 -0.00177,0.001749 -0.00235,0.002662 -5.671e-4,9.1303e-4 -0.00204,0.002447 -0.00329,0.00341 -0.00123,9.6197e-4 -0.00241,0.00227 -0.00259,0.002906 -4.027e-4,0.001399 -0.00265,0.003895 -0.00764,0.008482 -0.00206,0.001894 -0.00369,0.003693 -0.00361,0.004 7e-5,3.061e-4 -3.448e-4,9.4765e-4 -9.236e-4,0.001425 -0.00203,0.001683 -0.00601,0.00578 -0.00745,0.007676 -0.00292,0.003831 -0.0061,0.007262 -0.00787,0.0085 -0.00564,0.003925 -0.010244,0.006824 -0.012854,0.008095 -0.00163,7.9134e-4 -0.00344,0.001677 -0.00402,0.001969 -5.895e-4,2.9219e-4 -0.00249,0.001501 -0.00423,0.002686 -0.00174,0.001185 -0.0034,0.002174 -0.00369,0.002195 -2.955e-4,2.165e-5 -0.00292,0.002279 -0.00583,0.005015 -0.00291,0.002737 -0.00629,0.005763 -0.00753,0.006726 -0.00122,9.628e-4 -0.0022,0.001887 -0.00216,0.002054 3.95e-5,1.6682e-4 -0.00158,0.001831 -0.00359,0.003697 -0.00202,0.001867 -0.00361,0.003621 -0.00355,0.003901 6.62e-5,2.794e-4 -4.633e-4,0.001056 -0.00118,0.001724 -7.133e-4,6.69e-4 -0.00224,0.002795 -0.00339,0.004724 -0.00116,0.00193 -0.00242,0.003938 -0.0028,0.004464 -0.00402,0.005471 -0.014014,0.0217707 -0.014254,0.0232462 -1.964e-4,0.001207 -6.665e-4,0.002341 -0.00232,0.005583 -2.635e-4,5.173e-4 -7.3e-4,0.001774 -0.00104,0.002793 -3.082e-4,0.001019 -0.0011,0.0024 -0.00175,0.003071 -0.00123,0.001265 -0.00404,0.008893 -0.00546,0.0148871 -4.527e-4,0.0019 -5.073e-4,0.005572 -1.173e-4,0.008157 4.154e-4,0.002775 3.575e-4,0.005122 -1.382e-4,0.005725 -7.79e-4,9.4332e-4 -0.00115,0.001008 -0.00481,8.2927e-4 -0.00217,-1.0737e-4 -0.00424,-3.718e-4 -0.00459,-5.8854e-4 -3.992e-4,-2.4847e-4 -0.00215,-4.379e-5 -0.00475,5.5555e-4 l -0.00411,9.4867e-4 0.00102,0.003994 c 0.00128,0.004985 0.00545,0.0160706 0.00779,0.0207008 0.00123,0.002431 0.00537,0.0184652 0.013632,0.0527526 0.010706,0.0444343 0.014452,0.0581127 0.018021,0.0658006 4.468e-4,9.6322e-4 0.00165,0.003931 0.00268,0.006595 0.00102,0.002663 0.00269,0.006718 0.0037,0.00901 0.00101,0.002291 0.00287,0.006841 0.00412,0.0101106 0.00572,0.0148762 0.00661,0.0170818 0.00777,0.0191231 6.791e-4,0.001195 0.00198,0.00436 0.00288,0.007032 9.084e-4,0.002672 0.00291,0.008026 0.00444,0.0118978 0.00154,0.003872 0.00408,0.0115281 0.00565,0.0170152 0.00157,0.005487 0.00349,0.0119672 0.00427,0.0144002 7.769e-4,0.002433 0.00234,0.007548 0.00348,0.0113686 0.00299,0.0100586 0.00595,0.0190463 0.011338,0.0343632 5.613e-4,0.001598 0.00239,0.006981 0.00407,0.0119624 0.00168,0.004982 0.00408,0.0118334 0.00533,0.0152279 0.00514,0.0139055 0.00844,0.0226077 0.00945,0.0248855 5.885e-4,0.001327 0.00213,0.005288 0.00341,0.008804 0.004,0.0108828 0.00588,0.0151247 0.00931,0.0210479 0.00118,0.00203 0.00229,0.004327 0.00248,0.005106 1.847e-4,7.779e-4 9.756e-4,0.001688 0.00176,0.002021 0.00179,7.6544e-4 0.00565,5.0846e-4 0.00673,-4.4911e-4 0.00133,-0.001181 0.00551,-0.001703 0.00917,-0.001147 0.00181,2.7564e-4 0.00696,6.3182e-4 0.011439,7.9159e-4 0.00448,1.6002e-4 0.00859,4.4675e-4 0.00913,6.3917e-4 5.459e-4,1.9123e-4 0.00393,4.6342e-4 0.00753,6.0528e-4 0.00359,1.4139e-4 0.00764,4.6648e-4 0.00901,7.2172e-4 0.00136,2.5537e-4 0.0028,4.4072e-4 0.00319,4.1165e-4 0.00133,-9.737e-5 0.00826,0.001223 0.00834,0.001591 4.73e-5,1.999e-4 0.00153,4.9258e-4 0.00328,6.5123e-4 0.00176,1.5793e-4 0.00427,7.1255e-4 0.0056,0.001231 0.00131,5.1946e-4 0.00412,0.00135 0.00624,0.001848 0.00211,4.9667e-4 0.00494,0.001468 0.00627,0.002158 0.00133,6.904e-4 0.00569,0.002732 0.00969,0.004535 0.00399,0.001805 0.00819,0.004043 0.00934,0.004974 0.00114,9.3187e-4 0.00284,0.00215 0.00376,0.002708 9.227e-4,5.5769e-4 0.0022,0.002196 0.00286,0.003638 6.478e-4,0.001443 0.00203,0.003719 0.00307,0.005058 0.00207,0.002656 0.00397,0.003322 0.00761,0.002652 0.00233,-4.2938e-4 0.012207,3.3484e-4 0.017384,0.001345 0.00181,3.5147e-4 0.0039,5.9393e-4 0.00467,5.3797e-4 0.00264,-1.9329e-4 0.017049,0.001716 0.02274,0.003011 0.00118,2.6897e-4 0.004,5.9186e-4 0.00627,7.1739e-4 0.00227,1.2526e-4 0.00551,6.2469e-4 0.00722,0.001109 0.00171,4.8427e-4 0.00341,8.5851e-4 0.00379,8.309e-4 7.161e-4,-5.248e-5 0.01603,0.002657 0.018283,0.003235 7.144e-4,1.832e-4 0.0034,6.9528e-4 0.00597,0.001138 0.00257,4.4303e-4 0.00525,9.5575e-4 0.00596,0.001139 7.144e-4,1.8317e-4 0.00264,5.8102e-4 0.00427,8.84e-4 0.00164,3.0328e-4 0.00553,0.001226 0.00866,0.002051 0.00312,8.2533e-4 0.00813,0.001883 0.011131,0.002352 0.003,4.6903e-4 0.00566,9.4877e-4 0.00591,0.001066 0.0019,8.882e-4 0.020801,0.004382 0.022883,0.004229 8.92e-4,-6.538e-5 0.00337,7.478e-5 0.0055,3.1135e-4 0.00495,5.4885e-4 0.011175,-3.1927e-4 0.013289,-0.001854 0.00148,-0.001077 0.0018,-0.002833 0.00198,-0.0110707 4.33e-5,-0.001995 1.104e-4,-0.004649 1.382e-4,-0.005895 6.05e-5,-0.002302 0.0017,-0.007872 0.00259,-0.008825 9.501e-4,-0.001015 0.0031,-0.001316 0.00406,-5.7046e-4 5.131e-4,3.981e-4 0.00318,9.2652e-4 0.00594,0.001175 0.00275,2.4777e-4 0.00515,5.7382e-4 0.00532,7.2495e-4 1.712e-4,1.5122e-4 0.00165,5.2904e-4 0.0033,8.3875e-4 0.0031,5.865e-4 0.00821,0.0017 0.020584,0.004489 0.00402,9.0487e-4 0.00885,0.001961 0.010723,0.002347 0.00188,3.864e-4 0.00363,8.1404e-4 0.00389,9.5074e-4 8.177e-4,4.3676e-4 0.00725,0.001676 0.0083,0.001599 5.562e-4,-4.077e-5 0.00105,9.571e-5 0.0011,3.0329e-4 8.42e-5,3.5591e-4 0.0029,8.7277e-4 0.00914,0.001674 0.0015,1.9296e-4 0.00277,5.2667e-4 0.00282,7.4171e-4 5.09e-5,2.1505e-4 4.417e-4,3.6541e-4 8.684e-4,3.3414e-4 4.267e-4,-3.128e-5 0.0028,3.1932e-4 0.00527,7.7888e-4 0.00247,4.6002e-4 0.00564,0.001049 0.00705,0.00131 0.0014,2.6074e-4 0.00352,6.8449e-4 0.00469,9.4317e-4 0.00706,0.001542 0.020949,0.004145 0.021787,0.004084 5.442e-4,-3.988e-5 0.00115,8.971e-5 0.00135,2.8793e-4 1.961e-4,1.9838e-4 0.00401,0.001073 0.00846,0.001945 0.021748,0.004251 0.032038,0.006347 0.041875,0.008529 0.0059,0.00131 0.0131,0.002723 0.015995,0.003144 0.00289,4.2039e-4 0.00531,9.4346e-4 0.00536,0.001162 5.18e-5,2.1871e-4 5.632e-4,3.6329e-4 0.00114,3.2137e-4 5.733e-4,-4.202e-5 0.00295,3.0312e-4 0.00527,7.6797e-4 0.00446,8.9174e-4 0.0056,0.001152 0.011136,0.002558 0.0019,4.8325e-4 0.00499,0.001152 0.00686,0.001487 0.00186,3.3552e-4 0.00398,7.3732e-4 0.00468,8.936e-4 0.00603,0.00133 0.016501,0.00326 0.017352,0.003198 5.801e-4,-4.253e-5 0.00258,3.5024e-4 0.00444,8.7363e-4 0.00495,0.001389 0.00839,0.002118 0.014163,0.002997 0.002825,4.3101e-4 0.006641,0.001169 0.008478,0.001642 0.001836,4.7215e-4 0.003727,8.303e-4 0.004203,7.9542e-4 4.7391e-4,-3.473e-5 0.006677,0.001021 0.0137892,0.002345 0.007112,0.001325 0.0150506,0.002753 0.0176459,0.003175 0.003734,6.0624e-4 0.005256,0.001154 0.007307,0.00262 0.001421,0.001019 0.00317,0.00193 0.003878,0.002025 7.0647e-4,9.433e-5 0.002586,0.001041 0.004189,0.002103 0.001593,0.001062 0.00515,0.002924 0.007888,0.004137 0.002748,0.001213 0.005023,0.002345 0.005064,0.002517 4.049e-5,1.7109e-4 0.001961,0.00134 0.004276,0.002597 0.002315,0.001257 0.004276,0.002599 0.004367,0.002981 9.065e-5,3.831e-4 7.6345e-4,9.0629e-4 0.001495,0.001162 7.317e-4,2.5633e-4 0.001387,7.0442e-4 0.001456,9.9572e-4 6.894e-5,2.9136e-4 0.001365,0.001038 0.002893,0.001657 0.001518,6.2001e-4 0.003697,0.001772 0.004832,0.00256 0.001138,7.8804e-4 0.002326,0.001516 0.002652,0.001616 3.1846e-4,1.0115e-4 0.001002,9.1103e-4 0.001515,0.0018 0.001722,0.002973 0.008393,0.003672 0.009671,0.001014 5.9998e-4,-0.001246 3.9828e-4,-0.001582 -0.001884,-0.003144 -0.003356,-0.00229 -0.0160444,-0.0102817 -0.0191777,-0.0120744 -0.0110709,-0.006335 -0.0142338,-0.008367 -0.0136622,-0.008782 4.4498e-4,-3.2283e-4 0.008131,9.4225e-4 0.008228,0.001355 4.708e-5,1.9214e-4 0.001755,5.949e-4 0.003792,8.9508e-4 0.002038,3.0028e-4 0.004426,8.8897e-4 0.005312,0.001308 8.862e-4,4.1912e-4 0.00196,7.365e-4 0.002376,7.0598e-4 4.2255e-4,-3.097e-5 0.002593,4.7369e-4 0.004814,0.001122 0.002231,6.4774e-4 0.005489,0.00146 0.007245,0.001804 0.001756,3.4421e-4 0.003233,7.8884e-4 0.00328,9.8911e-4 4.73e-5,1.9992e-4 0.001202,5.8775e-4 0.002567,8.6184e-4 0.001365,2.7403e-4 0.003025,7.178e-4 0.00369,9.8631e-4 0.002262,9.1241e-4 0.008228,0.002687 0.0110239,0.003279 0.001532,3.2447e-4 0.003599,9.3646e-4 0.004593,0.001361 0.002174,9.2795e-4 0.00333,8.8559e-4 0.005461,-2.0149e-4 0.002234,-0.00114 0.00164,-0.003592 -0.00104,-0.004301 -0.001074,-2.8403e-4 -0.002912,-5.7555e-4 -0.004085,-6.478e-4 -0.00229,-1.4111e-4 -0.0154023,-0.003583 -0.0188762,-0.004955 -0.001159,-4.5768e-4 -0.002782,-0.001496 -0.003605,-0.002307 -0.001174,-0.001156 -0.002684,-0.001714 -0.006978,-0.002577 -0.003018,-6.0591e-4 -0.006567,-0.001497 -0.007892,-0.001979 l -0.002406,-8.7764e-4 0.004664,-5.3528e-4 c 0.004596,-5.2734e-4 0.0110521,-7.6513e-4 0.0292716,-0.001078 0.008632,-1.4859e-4 0.009303,-2.1835e-4 0.0101223,-0.001051 0.002292,-0.002333 -6.5927e-4,-0.004009 -0.006931,-0.003939 -0.008054,9.086e-5 -0.0340656,8.3049e-4 -0.0462862,0.001317 -0.0179342,7.1323e-4 -0.0224567,3.6898e-4 -0.0426579,-0.003243 -0.004666,-8.361e-4 -0.009427,-0.001604 -0.0105723,-0.001708 -0.001144,-1.0394e-4 -0.002293,-3.1278e-4 -0.002551,-4.6425e-4 -2.5952e-4,-1.5132e-4 -0.002202,-6.1019e-4 -0.004306,-0.001021 -0.002114,-4.0954e-4 -0.0048,-9.3518e-4 -0.005965,-0.001168 -0.001174,-2.3207e-4 -0.003852,-7.2018e-4 -0.005955,-0.001085 -0.008857,-0.001538 -0.0412955,-0.007899 -0.0511797,-0.0100373 -0.00213,-4.5868e-4 -0.00847,-0.00177 -0.01411,-0.002913 -0.00564,-0.001143 -0.010466,-0.002201 -0.010725,-0.002354 -2.596e-4,-1.5181e-4 -0.00256,-5.9295e-4 -0.00511,-9.808e-4 -0.00255,-3.8742e-4 -0.00524,-9.1015e-4 -0.00596,-0.001163 -7.306e-4,-2.5153e-4 -0.00255,-6.2705e-4 -0.00403,-8.3528e-4 -0.00149,-2.0747e-4 -0.00318,-6.2625e-4 -0.00378,-9.2926e-4 -5.889e-4,-3.0354e-4 -0.00161,-5.1206e-4 -0.00229,-4.6265e-4 -6.671e-4,4.89e-5 -0.00301,-3.4408e-4 -0.00519,-8.7439e-4 -0.00218,-5.2985e-4 -0.00607,-0.001314 -0.00863,-0.001743 -0.00256,-4.2867e-4 -0.0052,-9.9481e-4 -0.00585,-0.00126 -6.537e-4,-2.6418e-4 -0.00161,-4.5072e-4 -0.00214,-4.1373e-4 -0.00106,7.464e-5 -0.00174,-6.089e-5 -0.013843,-0.002726 -0.00475,-0.001044 -0.0096,-0.001962 -0.010794,-0.002039 -0.0012,-7.653e-5 -0.00289,-4.7636e-4 -0.00375,-8.8907e-4 -8.707e-4,-4.1176e-4 -0.00198,-7.1755e-4 -0.00246,-6.7909e-4 -9.808e-4,7.782e-5 -0.016799,-0.002878 -0.017527,-0.003275 -2.568e-4,-1.4009e-4 -0.00294,-6.5952e-4 -0.00596,-0.001155 -0.00302,-4.9481e-4 -0.00683,-0.001265 -0.00845,-0.001712 -0.00162,-4.474e-4 -0.0033,-7.8673e-4 -0.00374,-7.5476e-4 -10e-4,7.339e-5 -0.011088,-0.001779 -0.01508,-0.00277 -0.00166,-4.1301e-4 -0.00396,-8.3144e-4 -0.0051,-9.3023e-4 -0.0022,-1.8989e-4 -0.011403,-0.002577 -0.011988,-0.00311 -1.9e-4,-1.7281e-4 -7.818e-4,-2.8224e-4 -0.00132,-2.4292e-4 -5.333e-4,3.909e-5 -0.00367,-6.0288e-4 -0.00698,-0.001426 -0.0033,-8.2415e-4 -0.00725,-0.00168 -0.00875,-0.001903 -0.00151,-2.2345e-4 -0.00277,-5.5743e-4 -0.00282,-7.4236e-4 -4.37e-5,-1.849e-4 -0.00203,-6.4323e-4 -0.00442,-0.001018 -0.00239,-3.7478e-4 -0.00519,-0.001022 -0.00624,-0.001439 -0.00105,-4.1666e-4 -0.00317,-0.001075 -0.00471,-0.001464 -0.00154,-3.8859e-4 -0.00287,-9.5572e-4 -0.00294,-0.001261 -7.22e-5,-3.052e-4 8.131e-4,-0.001594 0.00197,-0.002863 0.00271,-0.002987 0.00395,-0.00449 0.00538,-0.006544 0.00179,-0.002559 0.00415,-0.005898 0.00491,-0.006941 3.775e-4,-5.1614e-4 9.517e-4,-0.003097 0.00129,-0.005736 3.281e-4,-0.002638 9.756e-4,-0.005383 0.00144,-0.0061 0.00166,-0.002552 -0.00205,-0.004846 -0.00808,-0.005004 -0.00164,-4.299e-5 -0.00339,-1.9692e-4 -0.00386,-3.4245e-4 -4.818e-4,-1.4528e-4 -0.00272,-3.7585e-4 -0.00497,-5.1267e-4 -0.00225,-1.3684e-4 -0.00612,-5.9524e-4 -0.0086,-0.00102 -0.00248,-4.2375e-4 -0.00467,-7.593e-4 -0.00487,-7.4476e-4 -1.984e-4,1.454e-5 -0.00358,-5.5247e-4 -0.00751,-0.00126 -0.00393,-7.0794e-4 -0.00769,-0.001247 -0.00833,-0.0012 -6.498e-4,4.763e-5 -0.00168,-1.7168e-4 -0.00229,-4.8777e-4 -6.128e-4,-3.1584e-4 -0.00249,-7.0901e-4 -0.00417,-8.7342e-4 -0.00168,-1.644e-4 -0.00442,-6.54e-4 -0.00609,-0.001088 -0.00167,-4.3382e-4 -0.00396,-8.4731e-4 -0.0051,-9.1834e-4 -0.00114,-7.14e-5 -0.00286,-3.9178e-4 -0.00383,-7.114e-4 -9.704e-4,-3.1984e-4 -0.00545,-0.00145 -0.00994,-0.002512 -0.0045,-0.001061 -0.00935,-0.002279 -0.010779,-0.002706 -0.00142,-4.2685e-4 -0.00516,-0.0013 -0.00831,-0.001941 -0.00314,-6.4152e-4 -0.00743,-0.001836 -0.00954,-0.002655 l -0.00384,-0.001489 0.00279,-0.001721 c 0.00153,-9.4655e-4 0.00428,-0.002371 0.00611,-0.003165 0.00183,-7.9447e-4 0.0035,-0.00165 0.00372,-0.001901 4.774e-4,-5.4442e-4 0.00514,-0.002651 0.00848,-0.00383 0.00378,-0.001335 0.016352,-0.007776 0.02016,-0.0103283 0.00192,-0.001283 0.00654,-0.004543 0.010283,-0.007245 0.00548,-0.003958 0.00675,-0.005163 0.0065,-0.0062 -3.449e-4,-0.001457 -0.00479,-0.003772 -0.00694,-0.003614 -0.00163,1.1917e-4 -0.0082,-0.002791 -0.01317,-0.005826 -0.002,-0.001223 -0.0074,-0.004086 -0.011994,-0.006364 -0.00459,-0.002278 -0.0084,-0.004285 -0.00846,-0.004462 -5.55e-5,-1.7629e-4 8.208e-4,-6.7942e-4 0.00194,-0.001118 0.00113,-4.3869e-4 0.00571,-0.002767 0.010176,-0.005172 0.00447,-0.002406 0.010394,-0.005559 0.013163,-0.007006 0.00277,-0.001448 0.00501,-0.002784 0.00498,-0.002968 -3.04e-5,-1.8452e-4 3.612e-4,-3.6601e-4 8.703e-4,-4.0332e-4 5.09e-4,-3.73e-5 0.00258,-9.6477e-4 0.0046,-0.002062 0.00696,-0.003782 0.00874,-0.00467 0.011343,-0.005668 0.00143,-5.5017e-4 0.00276,-0.001143 0.00295,-0.001317 0.00103,-9.8159e-4 0.012103,-0.006215 0.024337,-0.0115029 0.00642,-0.002778 0.03549,-0.0168179 0.036925,-0.0178377 6.575e-4,-4.6731e-4 0.0026,-0.001549 0.00431,-0.002405 0.00171,-8.5534e-4 0.0045,-0.002435 0.00618,-0.003509 0.00168,-0.001074 0.00329,-0.00197 0.00355,-0.001989 0.00105,-7.702e-5 0.010599,-0.00498 0.010856,-0.005575 1.499e-4,-3.4797e-4 0.00172,-0.001183 0.00348,-0.001855 0.00177,-6.7222e-4 0.00336,-0.00137 0.00354,-0.00155 3.115e-4,-3.11e-4 0.00811,-0.003926 0.017464,-0.008097 0.00447,-0.001995 0.00762,-0.003649 0.013509,-0.007102 0.00197,-0.001152 0.00538,-0.002975 0.00758,-0.004053 0.00221,-0.001077 0.00524,-0.002873 0.00674,-0.003991 0.0015,-0.001118 0.00305,-0.002057 0.00344,-0.002086 3.864e-4,-2.832e-5 0.00207,-8.6508e-4 0.00375,-0.001859 0.00168,-9.9468e-4 0.0033,-0.001826 0.0036,-0.001848 3.03e-4,-2.221e-5 9.354e-4,-2.8428e-4 0.00141,-5.824e-4 9.652e-4,-6.0981e-4 0.010907,-0.005442 0.015003,-0.007291 0.00147,-6.6365e-4 0.00383,-0.001295 0.00525,-0.001403 0.00185,-1.4113e-4 0.00276,-4.9489e-4 0.00326,-0.001265 8.99e-4,-0.001401 0.004,-0.003801 0.00499,-0.003874 4.328e-4,-3.171e-5 0.00139,-4.5283e-4 0.00213,-9.3661e-4 0.0012,-7.8221e-4 0.00308,-9.9061e-4 0.017105,-0.001889 0.00867,-5.5579e-4 0.017788,-9.6632e-4 0.02026,-9.1284e-4 0.00247,5.342e-5 0.00668,4.588e-5 0.00935,-1.699e-5 0.00267,-6.287e-5 0.00641,8.023e-5 0.00832,3.1856e-4 0.00335,4.1894e-4 0.00356,3.8709e-4 0.00648,-9.6595e-4 0.00256,-0.001186 0.00296,-0.001627 0.00266,-0.00289 -5.093e-4,-0.002152 -0.00413,-0.003586 -0.00843,-0.00334 -0.00744,4.2519e-4 -0.011838,4.3574e-4 -0.021008,5.197e-5 -0.0053,-2.2191e-4 -0.010056,-5.0967e-4 -0.010575,-6.3801e-4 -0.0014,-3.5173e-4 6.828e-4,-0.001803 0.00442,-0.003066 0.00175,-5.9133e-4 0.00333,-0.001203 0.00352,-0.001361 1.866e-4,-1.57e-4 0.002,-9.9125e-4 0.00403,-0.001853 0.00204,-8.6261e-4 0.00384,-0.001722 0.00402,-0.001909 1.791e-4,-1.8798e-4 0.00184,-9.1145e-4 0.00368,-0.001606 0.00185,-6.9622e-4 0.00384,-0.001556 0.00443,-0.001912 5.87e-4,-3.555e-4 0.00285,-0.00112 0.00502,-0.001699 0.00469,-0.001247 0.00493,-0.001444 0.00596,-0.004867 0.00134,-0.004475 0.0012,-0.005301 -9.972e-4,-0.00552 -0.00378,-3.7815e-4 -0.0073,2.7492e-4 -0.00953,0.001769 -0.00118,7.9563e-4 -0.00443,0.002271 -0.0072,0.003279 -0.00278,0.001008 -0.00544,0.002118 -0.00592,0.002468 -4.842e-4,3.4991e-4 -0.00388,0.001825 -0.00754,0.003278 -0.00366,0.001452 -0.00781,0.003277 -0.00921,0.004055 -0.00276,0.00153 -0.00675,0.003448 -0.011257,0.005422 l -0.00285,0.001247 3.449e-4,-0.001114 c 1.898e-4,-6.123e-4 0.00126,-0.0022 0.00239,-0.003527 0.00338,-0.003992 0.00497,-0.006138 0.0063,-0.008493 0.00122,-0.002161 0.00786,-0.008774 0.00999,-0.009949 7.446e-4,-4.1098e-4 7.812e-4,-0.001046 1.443e-4,-0.002235 -0.00113,-0.00209 -0.0018,-0.002366 -0.00575,-0.002373 -0.0028,-3.41e-6 -0.00337,1.6768e-4 -0.00466,0.001396 -0.00207,0.001976 -0.00694,0.008159 -0.00729,0.009284 -1.658e-4,5.1758e-4 -6.128e-4,9.6387e-4 -9.958e-4,9.9195e-4 -3.806e-4,2.789e-5 -8.259e-4,4.6908e-4 -9.885e-4,9.8031e-4 -1.638e-4,5.1133e-4 -9.776e-4,0.001538 -0.00182,0.002284 -8.325e-4,7.4439e-4 -0.00204,0.002106 -0.00268,0.003024 -6.407e-4,9.1842e-4 -0.00173,0.001978 -0.00243,0.002354 -6.939e-4,3.7621e-4 -0.00119,9.9211e-4 -0.0011,0.001369 2.08e-4,8.7892e-4 -0.00108,0.002731 -0.00534,0.007679 -0.00302,0.003497 -0.00403,0.004181 -0.00617,0.004143 -0.00144,-2.556e-5 -0.00447,0.002946 -0.00457,0.00448 -1.418e-4,0.002168 -0.00265,0.004187 -0.00624,0.005034 -0.00165,3.8889e-4 -0.00284,0.001001 -0.00296,0.001526 -1.956e-4,8.6735e-4 -0.00859,0.005685 -0.018459,0.010588 -0.0028,0.001392 -0.00651,0.003505 -0.00824,0.004695 -0.00174,0.001189 -0.00477,0.003029 -0.00676,0.004088 -0.00639,0.003406 -0.00778,0.004202 -0.00925,0.005285 -7.947e-4,5.8386e-4 -0.00281,0.001583 -0.00448,0.002219 -0.00167,6.3641e-4 -0.00342,0.001496 -0.00389,0.001909 -4.674e-4,4.132e-4 -0.00203,0.001067 -0.00347,0.001454 -0.00144,3.8669e-4 -0.00257,8.824e-4 -0.00252,0.001102 5.19e-5,2.1948e-4 -9.967e-4,8.18e-4 -0.00233,0.00133 -0.00133,5.1188e-4 -0.00603,0.00271 -0.010435,0.004886 -0.011609,0.005731 -0.012896,0.006397 -0.01497,0.007747 -0.00103,6.7081e-4 -0.00376,0.002244 -0.00606,0.003497 -0.00231,0.001253 -0.0047,0.002621 -0.00531,0.003039 -0.00275,0.001855 -0.00503,0.003091 -0.00732,0.003973 -0.00136,5.2248e-4 -0.00327,0.001396 -0.00426,0.001941 -0.00272,0.001501 -0.011528,0.005739 -0.011995,0.005773 -4.641e-4,3.401e-5 -0.00718,0.003323 -0.00771,0.003774 -1.859e-4,1.5968e-4 -0.002,9.9612e-4 -0.00403,0.001858 -0.00204,8.6262e-4 -0.00384,0.001714 -0.00402,0.001892 -1.815e-4,1.7855e-4 -0.00176,8.6849e-4 -0.0035,0.001532 -0.00175,6.6468e-4 -0.00313,0.00139 -0.00308,0.001614 5.28e-5,2.2328e-4 -5.592e-4,5.7686e-4 -0.00136,7.8553e-4 -0.00144,3.7627e-4 -0.00661,0.002855 -0.019619,0.009417 -0.0037,0.001866 -0.00772,0.003873 -0.00893,0.00446 -0.00121,5.8686e-4 -0.00458,0.002413 -0.00748,0.004056 -0.0029,0.001644 -0.00565,0.003017 -0.00611,0.003051 -4.579e-4,3.356e-5 -0.00125,3.4623e-4 -0.00176,6.9503e-4 -5.087e-4,3.4852e-4 -0.00287,0.001687 -0.00525,0.002975 -0.00238,0.001288 -0.00538,0.002984 -0.00666,0.00377 -0.0015,9.1767e-4 -0.00326,0.001497 -0.00491,0.001619 -0.00142,1.0391e-4 -0.00371,4.6356e-4 -0.0051,7.9889e-4 -0.00243,5.8895e-4 -0.00266,5.3507e-4 -0.0065,-0.001558 -0.00219,-0.001192 -0.00465,-0.002884 -0.00546,-0.003761 -8.122e-4,-8.7596e-4 -0.00241,-0.002135 -0.00356,-0.002798 -0.00115,-6.6305e-4 -0.00345,-0.002684 -0.00512,-0.004492 -0.00167,-0.001807 -0.00334,-0.003263 -0.00373,-0.003235 -3.809e-4,2.792e-5 -7.44e-4,-1.6682e-4 -8.069e-4,-4.3276e-4 -6.29e-5,-2.6593e-4 -0.00224,-0.001788 -0.00483,-0.003381 -0.00355,-0.002183 -0.00558,-0.003033 -0.0082,-0.003448 -0.00637,-0.001006 -0.00789,-3.9469e-4 -0.018492,0.00743 -0.0052,0.003832 -0.010035,0.00701 -0.010762,0.007063 -0.0017,1.2426e-4 -0.00219,-5.0554e-4 -0.00437,-0.005565 -0.00382,-0.008851 -0.00579,-0.0208522 -0.00498,-0.0301931 1.758e-4,-0.002005 1.561e-4,-0.005606 -3.79e-5,-0.008004 -1.978e-4,-0.002397 -1.661e-4,-0.004597 7.34e-5,-0.00489 2.363e-4,-2.9243e-4 3.097e-4,-0.004233 1.772e-4,-0.008757 -2.305e-4,-0.007539 -9.1e-4,-0.0110499 -0.00811,-0.0420996 -0.00432,-0.018631 -0.00824,-0.0365765 -0.00871,-0.0398789 -0.0021,-0.0146759 -0.00371,-0.0282299 -0.0037,-0.031148 8.5e-6,-0.001744 -4.272e-4,-0.007517 -9.783e-4,-0.0128304 -5.443e-4,-0.005313 -8.958e-4,-0.0108618 -7.792e-4,-0.01233 1.796e-4,-0.002306 -6.685e-4,-0.009219 -0.00292,-0.0239035 -0.00119,-0.007744 3.344e-4,-0.0218185 0.00247,-0.0227869 3.567e-4,-1.6205e-4 5.56e-4,-6.8603e-4 4.429e-4,-0.001164 -1.132e-4,-4.7836e-4 3.83e-5,-0.001241 3.367e-4,-0.001696 9.188e-4,-0.001403 0.00366,-0.008223 0.00388,-0.009672 1.171e-4,-7.5556e-4 3.961e-4,-0.001896 6.204e-4,-0.002536 2.235e-4,-6.3886e-4 4.17e-4,-0.002003 4.326e-4,-0.003031 2.22e-5,-0.001739 -1.829e-4,-0.001928 -0.00293,-0.002704 -0.00162,-4.589e-4 -0.00368,-0.001505 -0.00458,-0.002325 -8.961e-4,-8.1996e-4 -0.00386,-0.002281 -0.00658,-0.003248 -0.00576,-0.002046 -0.00709,-0.002136 -0.026724,-0.001803 -0.00727,1.2365e-4 -0.014751,4.525e-5 -0.016615,-1.7415e-4 -0.00187,-2.1906e-4 -0.00524,-2.6971e-4 -0.00749,-1.125e-4 -0.00225,1.5739e-4 -0.00758,2.7383e-4 -0.011835,2.5881e-4 -0.00533,-1.913e-5 -0.011309,3.305e-4 -0.019256,0.001126 -0.012252,0.001226 -0.037491,0.002533 -0.040982,0.002121 -0.00286,-3.3686e-4 -0.011098,-7.1166e-4 -0.027135,-0.001235 -0.00744,-2.4252e-4 -0.014663,-6.0771e-4 -0.016054,-8.114e-4 -0.0044,-6.4364e-4 -0.010684,-0.001223 -0.016215,-0.001493 -0.00717,-3.497e-4 -0.016494,-0.001152 -0.017274,-0.001488 -0.00107,-4.571e-4 -0.00234,-0.009027 -0.00188,-0.0125848 6.06e-4,-0.004643 0.0023,-0.009585 0.00444,-0.0129663 9.91e-4,-0.001566 0.0024,-0.004522 0.00313,-0.006567 7.264e-4,-0.002045 0.00168,-0.004386 0.0021,-0.005202 4.26e-4,-8.1586e-4 7.484e-4,-0.001611 7.116e-4,-0.001767 -6.52e-5,-2.755e-4 0.011696,-0.0196767 0.012798,-0.0211115 3.039e-4,-3.9577e-4 0.00113,-0.001678 0.00184,-0.002851 0.00363,-0.00603 0.00988,-0.0131417 0.017144,-0.019508 0.0014,-0.00123 0.00372,-0.003408 0.00515,-0.004839 0.00333,-0.003332 0.012265,-0.00914 0.019984,-0.0129831 0.00332,-0.001653 0.00677,-0.00359 0.00766,-0.004306 8.898e-4,-7.1557e-4 0.00289,-0.002311 0.00445,-0.003545 0.00155,-0.001234 0.00394,-0.00365 0.0053,-0.005368 0.00136,-0.001718 0.00335,-0.004003 0.00443,-0.005078 0.00108,-0.001075 0.00563,-0.006094 0.010122,-0.0111542 0.00449,-0.00506 0.00857,-0.00938 0.00906,-0.009599 4.911e-4,-2.1961e-4 0.00158,-0.001447 0.00243,-0.00273 8.466e-4,-0.001281 0.0048,-0.006024 0.00878,-0.0105383 0.00399,-0.004514 0.00802,-0.009264 0.00895,-0.010554 0.00363,-0.004997 0.00811,-0.0106039 0.010236,-0.0128186 0.00122,-0.001273 0.00218,-0.00249 0.00213,-0.002704 -5.07e-5,-2.1422e-4 3.555e-4,-6.5855e-4 9.06e-4,-9.8764e-4 5.473e-4,-3.2884e-4 0.00236,-0.002754 0.00405,-0.005392 0.00168,-0.002636 0.00399,-0.005776 0.00515,-0.006979 0.00115,-0.001202 0.00238,-0.002537 0.00272,-0.002969 3.453e-4,-4.3129e-4 0.00141,-0.001717 0.00237,-0.002859 9.604e-4,-0.001142 0.00171,-0.002251 0.00166,-0.002466 -5.1e-5,-2.1555e-4 0.00342,-0.002958 0.00771,-0.006095 0.010597,-0.007747 0.013628,-0.0104205 0.020233,-0.0178485 0.00311,-0.003503 0.00623,-0.006819 0.00694,-0.007368 6.998e-4,-5.4926e-4 0.00244,-0.002612 0.00386,-0.004584 0.00142,-0.001971 0.00317,-0.004137 0.00386,-0.00481 7.02e-4,-6.7392e-4 0.00276,-0.002942 0.00459,-0.005041 0.00182,-0.002098 0.0041,-0.00471 0.00507,-0.005804 9.716e-4,-0.001094 0.0023,-0.002894 0.00296,-0.004 6.533e-4,-0.001106 0.00153,-0.002036 0.00193,-0.002066 4.079e-4,-2.99e-5 0.00118,-7.489e-4 0.00173,-0.001598 5.446e-4,-8.4914e-4 0.00238,-0.002798 0.00408,-0.00433 0.0017,-0.001532 0.00458,-0.004137 0.0064,-0.005788 0.00217,-0.001965 0.00389,-0.003044 0.005,-0.003125 0.00166,-1.2135e-4 0.011889,0.00167 0.01424,0.002494 6.531e-4,2.2878e-4 0.00322,5.6043e-4 0.00569,7.3772e-4 0.00247,1.7736e-4 0.00566,5.6129e-4 0.00707,8.545e-4 0.00141,2.9278e-4 0.00315,4.9056e-4 0.00386,4.4043e-4 0.00156,-1.0963e-4 0.010157,0.00111 0.010873,0.001543 2.792e-4,1.6845e-4 0.00201,5.3076e-4 0.00385,8.05e-4 0.00184,2.7428e-4 0.00702,0.001362 0.011502,0.002418 0.00449,0.001055 0.010461,0.002309 0.013282,0.002785 0.00282,4.7622e-4 0.00726,0.001442 0.00987,0.002145 0.00261,7.0403e-4 0.00519,0.001248 0.00573,0.001208 5.425e-4,-3.976e-5 0.00171,2.4484e-4 0.00261,6.3164e-4 0.00295,0.00128 0.020041,0.002219 0.037443,0.002057 0.00811,-7.55e-5 0.012179,1.0399e-4 0.015207,6.7274e-4 0.00227,4.2698e-4 0.00578,9.2616e-4 0.00778,0.001109 0.002,1.8392e-4 0.00415,5.5151e-4 0.00477,8.1819e-4 6.231e-4,2.6608e-4 0.00274,8.0958e-4 0.0047,0.001209 0.00196,3.9898e-4 0.00423,0.001147 0.00502,0.001663 0.00136,8.799e-4 0.00129,0.001148 -0.00107,0.004284 -0.00139,0.00184 -0.00248,0.003545 -0.00242,0.003787 5.75e-5,2.4282e-4 -1.496e-4,5.2804e-4 -4.601e-4,6.3383e-4 -6.521e-4,2.2208e-4 -0.00414,0.003995 -0.00405,0.00438 3.35e-5,1.416e-4 -0.0011,0.001157 -0.00251,0.002255 -0.00141,0.001098 -0.0043,0.003625 -0.00639,0.005614 -0.0021,0.00199 -0.00482,0.004395 -0.00606,0.005346 -0.00228,0.001753 -0.0033,0.002865 -0.0043,0.004713 -3.086e-4,5.6275e-4 -0.00283,0.003287 -0.0056,0.006053 -0.00277,0.002766 -0.00524,0.00546 -0.00548,0.005984 -2.44e-4,5.2482e-4 -0.00127,0.001626 -0.00228,0.002446 -0.00101,8.2072e-4 -0.0035,0.00304 -0.00552,0.004931 -0.00202,0.001891 -0.00489,0.004359 -0.00637,0.005483 -0.00148,0.001124 -0.00362,0.003041 -0.00477,0.00426 -0.00383,0.004068 -0.011386,0.010831 -0.015076,0.0134876 -0.00201,0.001445 -0.0036,0.002808 -0.00355,0.003028 5.22e-5,2.2076e-4 -0.0012,0.001288 -0.00278,0.002371 -0.00158,0.001083 -0.00353,0.002745 -0.00434,0.003694 -8.046e-4,9.4777e-4 -0.0025,0.002512 -0.00376,0.003476 -0.00253,0.001932 -0.00611,0.005065 -0.00785,0.006855 -6.171e-4,6.356e-4 -0.00315,0.002757 -0.00564,0.004714 -0.00248,0.001957 -0.00492,0.004018 -0.00542,0.00458 -0.00135,0.001517 -0.00572,0.0052 -0.010997,0.009265 -0.00258,0.001982 -0.00504,0.00414 -0.00549,0.004796 -4.491e-4,6.554e-4 -0.00242,0.002291 -0.00438,0.003635 -0.00196,0.001343 -0.00353,0.002613 -0.00348,0.002821 4.93e-5,2.0808e-4 -0.00115,0.001314 -0.00266,0.002458 -0.00151,0.001144 -0.00369,0.003051 -0.00483,0.004239 -0.00114,0.001187 -0.00235,0.002179 -0.00269,0.002204 -3.355e-4,2.459e-5 -7.34e-4,4.3134e-4 -8.855e-4,9.0394e-4 -1.513e-4,4.7259e-4 -0.00343,0.003107 -0.00728,0.005853 -0.00386,0.002747 -0.00815,0.006236 -0.00953,0.007756 -0.00139,0.001519 -0.0031,0.00307 -0.00378,0.003446 -6.949e-4,3.767e-4 -0.00247,0.00179 -0.00394,0.003139 -0.00147,0.001349 -0.00314,0.002805 -0.0037,0.003235 -0.0022,0.001657 -0.00576,0.005098 -0.00662,0.006391 -4.95e-4,7.4404e-4 -0.00209,0.002823 -0.00353,0.004619 -0.00144,0.001796 -0.00306,0.004418 -0.00359,0.005827 -5.285e-4,0.001408 -0.00156,0.003316 -0.00228,0.004241 -7.257e-4,9.2464e-4 -0.00238,0.003392 -0.00368,0.005482 -0.0013,0.00209 -0.0033,0.004759 -0.00447,0.00593 -0.00116,0.001171 -0.00282,0.003361 -0.00369,0.004868 -0.00109,0.001878 -0.00384,0.004444 -0.00877,0.008168 -0.00395,0.002987 -0.00834,0.006375 -0.00975,0.007532 -0.00141,0.001156 -0.00377,0.002648 -0.00525,0.003315 -0.00478,0.002161 -0.00729,0.004113 -0.00697,0.00544 5.377e-4,0.002272 0.00566,0.003203 0.0077,0.001399 4.831e-4,-4.2709e-4 0.00223,-0.001292 0.00386,-0.00192 0.00584,-0.002239 0.029088,-0.0197016 0.028738,-0.0215919 -3.33e-5,-1.7946e-4 8.929e-4,-0.001469 0.00205,-0.002866 0.00116,-0.001397 0.00228,-0.002858 0.00249,-0.003247 2.125e-4,-3.8905e-4 9.491e-4,-0.00136 0.00164,-0.002157 6.89e-4,-7.9748e-4 0.00324,-0.004711 0.00568,-0.008696 0.00501,-0.008205 0.00997,-0.0145925 0.013866,-0.0178651 0.00147,-0.001226 0.00409,-0.003556 0.00585,-0.005178 0.00557,-0.005152 0.00795,-0.00714 0.014219,-0.0118412 0.00337,-0.002524 0.00791,-0.006326 0.010117,-0.00845 0.00645,-0.006222 0.01721,-0.015346 0.022731,-0.0192752 0.00165,-0.001172 0.00439,-0.003454 0.00609,-0.005073 0.00323,-0.003061 0.00572,-0.005136 0.012818,-0.0106526 0.00481,-0.003745 0.010977,-0.009122 0.012483,-0.0108943 5.64e-4,-6.6382e-4 0.00291,-0.002873 0.00522,-0.00491 0.0023,-0.002036 0.00481,-0.004257 0.00558,-0.004936 7.608e-4,-6.7824e-4 0.00375,-0.003138 0.00663,-0.005466 0.00987,-0.007955 0.032347,-0.0282375 0.032162,-0.0290188 -5.36e-5,-2.2681e-4 0.00102,-0.00149 0.00238,-0.002807 0.00272,-0.00262 0.00354,-0.00355 0.00505,-0.005709 0.00127,-0.001821 0.00567,-0.006159 0.016633,-0.0164078 0.00247,-0.00231 0.00514,-0.005001 0.00593,-0.00598 0.0016,-0.001975 0.00272,-0.002261 0.00487,-0.001239 7.964e-4,3.7736e-4 0.00345,0.001558 0.00588,0.002625 0.00244,0.001066 0.00541,0.002611 0.0066,0.003434 0.00119,8.2226e-4 0.00375,0.002061 0.00568,0.002753 0.00709,0.002536 0.00957,0.003304 0.010449,0.003239 4.954e-4,-3.63e-5 0.00157,6.645e-5 0.00238,2.2845e-4 0.00606,0.001205 0.00979,0.001678 0.014037,0.001787 0.0027,6.935e-5 0.00639,1.9146e-4 0.00819,2.7177e-4 0.00996,4.4112e-4 0.010422,6.412e-4 0.00915,0.003996 -0.00128,0.003345 -0.00293,0.006152 -0.00569,0.009646 -0.0013,0.001647 -0.00233,0.003174 -0.00227,0.003393 5.19e-5,2.1921e-4 -3.863e-4,6.8737e-4 -9.743e-4,0.00104 -5.875e-4,3.5302e-4 -10e-4,9.2651e-4 -9.188e-4,0.001275 8.23e-5,3.4785e-4 -0.00128,0.001935 -0.00303,0.003527 -0.00428,0.003898 -0.00746,0.007145 -0.00737,0.007525 1.314e-4,5.5535e-4 -0.00433,0.005563 -0.0066,0.007408 -0.00649,0.005276 -0.013525,0.0103534 -0.015771,0.0113789 -0.0014,6.3886e-4 -0.00303,0.00151 -0.00364,0.001937 -6.015e-4,4.2668e-4 -0.00219,0.001366 -0.00352,0.002086 -0.00134,7.2086e-4 -0.0039,0.002244 -0.00567,0.003386 -0.00179,0.001142 -0.00483,0.002995 -0.00676,0.004118 -0.00193,0.001123 -0.00503,0.003069 -0.00688,0.004325 -0.00185,0.001256 -0.00378,0.002518 -0.00429,0.002805 -5.029e-4,2.8584e-4 -0.00299,0.001817 -0.00552,0.003401 -0.00253,0.001584 -0.00561,0.003271 -0.00684,0.003746 -0.00123,4.756e-4 -0.00519,0.002924 -0.00881,0.00544 -0.00361,0.002517 -0.00686,0.004502 -0.00722,0.004413 -0.00124,-3.1098e-4 -0.00306,5.7113e-4 -0.00287,0.00139 1.072e-4,4.5313e-4 -0.00217,0.002585 -0.00507,0.004737 -0.00525,0.003899 -0.013519,0.0111906 -0.016467,0.0145201 -8.515e-4,9.6274e-4 -0.00267,0.003031 -0.00405,0.004597 -0.00137,0.001565 -0.0031,0.003157 -0.00384,0.003537 -7.408e-4,3.7964e-4 -0.00129,9.3966e-4 -0.00122,0.001244 7.21e-5,3.0455e-4 -0.0011,0.001936 -0.0026,0.003626 -0.00457,0.005142 -0.00489,0.005526 -0.00624,0.007499 -7.204e-4,0.001049 -0.00202,0.00257 -0.00289,0.003381 -8.673e-4,8.1054e-4 -0.00182,0.001695 -0.0021,0.001964 -2.816e-4,2.6963e-4 -8.346e-4,0.001162 -0.00122,0.00198 -3.897e-4,8.1976e-4 -0.00132,0.001887 -0.00205,0.002371 -7.392e-4,4.8425e-4 -0.00128,0.001138 -0.00121,0.001452 7.45e-5,3.1456e-4 -0.0013,0.001962 -0.00306,0.003662 -0.00313,0.003036 -0.00674,0.006783 -0.00973,0.010134 -8.284e-4,9.3218e-4 -0.00407,0.00362 -0.00718,0.005973 -0.013953,0.0105451 -0.020453,0.0156643 -0.020365,0.0160362 5.22e-5,2.2089e-4 -0.00158,0.001846 -0.00361,0.003609 -0.00204,0.001764 -0.00367,0.003381 -0.00362,0.003592 1.085e-4,4.5853e-4 -0.010846,0.008454 -0.015585,0.0113769 -0.00183,0.00113 -0.00432,0.002419 -0.00552,0.002863 -0.0012,4.4407e-4 -0.00214,9.7166e-4 -0.00209,0.001172 4.75e-5,2.0033e-4 -3.179e-4,3.9388e-4 -8.119e-4,4.3009e-4 -0.00204,1.4969e-4 -0.012409,0.005279 -0.016242,0.008036 -0.00227,0.00163 -0.00452,0.002993 -0.00499,0.003028 -4.796e-4,3.515e-5 -0.00338,0.001931 -0.00645,0.004213 -0.0048,0.003579 -0.00619,0.004309 -0.010114,0.005315 -0.00797,0.002048 -0.00973,0.004414 -0.00447,0.006033 0.0025,7.7073e-4 0.00302,7.8165e-4 0.00511,1.1066e-4 0.00128,-4.1077e-4 0.00424,-0.001187 0.00657,-0.001725 0.00363,-8.3824e-4 0.00509,-0.001583 0.010161,-0.005184 0.010366,-0.007364 0.015762,-0.0107282 0.017997,-0.0112198 0.0012,-2.6357e-4 0.00304,-9.1078e-4 0.0041,-0.001438 0.00106,-5.2752e-4 0.00476,-0.002318 0.00822,-0.003976 0.009,-0.004319 0.01731,-0.0103161 0.028062,-0.0202583 0.00325,-0.003006 0.012343,-0.0107963 0.01333,-0.0114223 0.0067,-0.004246 0.016071,-0.0125326 0.023121,-0.0204492 0.00179,-0.002017 0.00384,-0.004309 0.00455,-0.005092 0.00664,-0.007355 0.00928,-0.0104468 0.00971,-0.0113846 2.787e-4,-6.0773e-4 0.00159,-0.001971 0.0029,-0.00303 0.00132,-0.001059 0.00284,-0.002596 0.00338,-0.003417 0.00146,-0.002234 0.00216,-0.003095 0.00553,-0.006804 0.0037,-0.004079 0.00605,-0.006543 0.00716,-0.007542 4.542e-4,-4.0678e-4 0.00154,-0.001505 0.00241,-0.00244 0.00316,-0.0034 0.011978,-0.0108422 0.015389,-0.0129903 0.00363,-0.002291 0.00562,-0.003593 0.011721,-0.007705 0.002,-0.001348 0.00495,-0.00309 0.00656,-0.003872 0.0016,-7.8098e-4 0.00308,-0.001539 0.00326,-0.001684 1.895e-4,-1.4454e-4 0.00243,-0.00143 0.00496,-0.002858 0.0042,-0.002361 0.012324,-0.0076 0.020514,-0.0132297 0.00273,-0.00188 0.00656,-0.004169 0.011693,-0.007006 7.799e-4,-4.3064e-4 0.00225,-0.001353 0.00327,-0.00205 0.00102,-6.9688e-4 0.00336,-0.002162 0.0052,-0.003255 0.00904,-0.005356 0.01823,-0.0131987 0.021555,-0.0183993 6.681e-4,-0.001045 0.00141,-0.002016 0.00166,-0.002159 2.418e-4,-1.4222e-4 0.00191,-0.001758 0.00372,-0.003591 0.00181,-0.001833 0.00441,-0.004325 0.0058,-0.005539 0.00139,-0.001213 0.00431,-0.005105 0.0065,-0.008648 0.00219,-0.003543 0.00445,-0.007176 0.00505,-0.008074 0.0012,-0.001839 0.00173,-0.005447 0.00115,-0.007891 -2.986e-4,-0.001262 -0.00106,-0.00191 -0.00336,-0.002861 -0.00163,-6.7616e-4 -0.00364,-0.001181 -0.00444,-0.001122 -8.067e-4,5.912e-5 -0.00268,-1.9215e-4 -0.00416,-5.5853e-4 -0.00148,-3.6643e-4 -0.00621,-8.2902e-4 -0.010507,-0.001028 -0.012582,-5.8474e-4 -0.017579,-0.001235 -0.02278,-0.002964 -0.00177,-5.8808e-4 -0.00345,-0.001053 -0.00373,-0.001032 -0.00152,1.1118e-4 -0.00902,-0.00325 -0.010955,-0.004907 -8.329e-4,-7.1391e-4 -0.00212,-0.00151 -0.00286,-0.00177 -0.00207,-7.2191e-4 -0.00184,-0.001168 0.00193,-0.003813 0.00192,-0.001347 0.00346,-0.002606 0.00341,-0.002797 -4.12e-5,-1.9137e-4 0.00139,-0.001514 0.00317,-0.002937 0.00178,-0.001424 0.00427,-0.003632 0.00555,-0.004906 0.00126,-0.001274 0.00377,-0.00343 0.00555,-0.004791 0.0018,-0.001361 0.00339,-0.002866 0.00354,-0.003343 1.528e-4,-4.7722e-4 6.212e-4,-8.9287e-4 0.00104,-9.2372e-4 4.197e-4,-3.076e-5 0.00185,-0.001335 0.00319,-0.002899 0.00203,-0.002384 0.00402,-0.004409 0.0075,-0.007617 2.926e-4,-2.7044e-4 0.00307,-0.003021 0.00617,-0.006111 0.0031,-0.003091 0.00619,-0.006103 0.00687,-0.006693 6.744e-4,-5.9055e-4 0.00175,-0.001687 0.00239,-0.002436 0.00172,-0.002023 0.00706,-0.007233 0.011702,-0.0114239 0.00225,-0.002035 0.00438,-0.004051 0.00473,-0.00448 0.00211,-0.002611 0.010424,-0.0106819 0.012521,-0.0121484 0.00137,-9.5825e-4 0.00245,-0.001918 0.0024,-0.002132 -1.096e-4,-4.6342e-4 0.00523,-0.00621 0.00789,-0.008493 0.00156,-0.00134 0.00693,-0.006949 0.00935,-0.0097639 8.383e-4,-9.7573e-4 0.00141,-0.0015201 0.00676,-0.006512 0.00249,-0.0023226 0.00569,-0.0054786 0.00713,-0.0070148 0.00142,-0.0015355 0.00387,-0.0039574 0.00543,-0.0053809 0.00157,-0.0014242 0.00281,-0.0027278 0.00277,-0.0028964 -7.17e-5,-3.029e-4 0.00247,-0.0031869 0.00325,-0.0036829 2.203e-4,-1.4065e-4 0.00172,-0.0015705 0.00331,-0.0031766 0.00161,-0.0016068 0.00479,-0.0046465 0.00709,-0.006756 0.0023,-0.0021093 0.00414,-0.0039924 0.00409,-0.0041848 -4.55e-5,-1.9232e-4 4.712e-4,-7.8521e-4 0.00115,-0.0013175 0.00188,-0.0014789 0.010071,-0.01008333 0.010742,-0.01128497 3.26e-4,-5.8412e-4 8.596e-4,-0.0010816 0.00118,-0.0011055 3.257e-4,-2.388e-5 0.00115,-7.465e-4 0.00184,-0.0016058 6.833e-4,-8.593e-4 0.00173,-0.0020054 0.00232,-0.0025471 0.00301,-0.0027375 0.00568,-0.0056188 0.00558,-0.0060233 -5.91e-5,-2.4986e-4 4.572e-4,-8.6015e-4 0.00115,-0.0013562 0.00202,-0.0014552 0.0055,-0.0049279 0.00539,-0.0053876 -5.51e-5,-2.3277e-4 5.337e-4,-8.3841e-4 0.00131,-0.0013459 7.747e-4,-5.0744e-4 0.00137,-0.0010911 0.00132,-0.001297 -1.031e-4,-4.3543e-4 0.00594,-0.0069165 0.00794,-0.0085202 9.76e-4,-7.816e-4 0.00176,-0.0010057 0.00276,-7.9248e-4 7.702e-4,1.6352e-4 0.00336,4.8549e-4 0.00576,7.1556e-4 0.0024,2.301e-4 0.00461,5.8813e-4 0.00491,7.9576e-4 3.044e-4,2.0761e-4 0.00141,3.1438e-4 0.00247,2.3721e-4 0.00105,-7.717e-5 0.00278,-1.969e-5 0.00385,1.2764e-4 0.00106,1.4738e-4 0.00415,3.4488e-4 0.00685,4.3894e-4 0.00271,9.401e-5 0.00606,3.6647e-4 0.00746,6.0542e-4 0.0014,2.3898e-4 0.00509,3.7497e-4 0.00821,3.022e-4 0.00311,-7.277e-5 0.007719,5.089e-5 0.0102326,2.747e-4 0.0101262,9.018e-4 0.0345807,-0.001929 0.0419499,-0.004856 0.001425,-5.661e-4 0.003515,-0.0010969 0.004643,-0.0011796 0.001822,-1.3356e-4 0.0163757,-0.00537324 0.0172126,-0.006197 1.8143e-4,-1.7864e-4 0.001957,-0.00118563 0.003944,-0.00223773 0.001988,-0.00105222 0.004815,-0.00284128 0.006282,-0.00397592 0.001467,-0.001134645 0.003764,-0.00266917 0.005103,-0.00341008 0.001339,-7.4087e-4 0.002829,-0.00211349 0.003312,-0.00305016 0.001817,-0.00352479 0.00386,-0.00646675 0.004903,-0.0070593 0.001564,-8.8866e-4 2.33e-6,-0.0029125 -0.003282,-0.0042548 -0.002637,-0.0010777 -0.002973,-0.001093 -0.0116777,-5.331e-4 -0.0146629,9.4308e-4 -0.0269903,0.0013984 -0.0352268,0.0013009 -0.004262,-5.041e-5 -0.009618,4.163e-5 -0.0119015,2.0454e-4 -0.002283,1.6283e-4 -0.004448,9.498e-5 -0.004809,-1.5102e-4 -3.6071e-4,-2.4601e-4 -0.001478,-2.9571e-4 -0.002483,-1.1045e-4 -0.002758,5.0842e-4 -0.0242607,0.0013075 -0.0272436,0.0010124 -0.00144,-1.42e-4 -0.00682,-2.6969e-4 -0.011971,-2.8379e-4 -0.00515,-1.411e-5 -0.011834,-5.11e-5 -0.014858,-8.216e-5 -0.00387,-3.976e-5 -0.00643,1.592e-4 -0.00864,6.7035e-4 -0.00333,7.6965e-4 -0.00337,9.7566e-4 -9.135e-4,0.0041876 3.163e-4,4.1322e-4 -2.15e-4,0.00105122 -0.00131,0.00157809 -0.0011,5.29e-4 -0.00175,0.00130314 -0.0016,0.00192656 1.356e-4,5.732e-4 -3.567e-4,0.00160798 -0.00109,0.00229948 -0.00116,0.0010853 -0.0036,0.005111793 -0.0061,0.01004864 -0.00158,0.00312111 -0.00241,0.00422336 -0.00468,0.00618187 -0.00246,0.00212 -0.00323,0.0029631 -0.00494,0.0053888 -5.564e-4,7.8775e-4 -0.00202,0.0023423 -0.00326,0.0034545 -0.00124,0.0011122 -0.0022,0.0022142 -0.00215,0.0024487 5.55e-5,2.3459e-4 -5.579e-4,9.4115e-4 -0.00136,0.0015701 -8.053e-4,6.2903e-4 -0.00213,0.0021329 -0.00294,0.0033422 -8.123e-4,0.0012092 -0.00237,0.002938 -0.00345,0.0038417 -0.00109,9.0373e-4 -0.00252,0.0024418 -0.0032,0.0034177 -0.0014,0.0020326 -0.00516,0.0060578 -0.00737,0.0078843 -8.263e-4,6.8304e-4 -0.00263,0.002547 -0.00401,0.0041421 -0.00269,0.0031071 -0.00654,0.0069422 -0.011746,0.01171194 -0.00178,0.0016322 -0.00482,0.0044075 -0.00674,0.0061668 -0.00412,0.003771 -0.00774,0.0075779 -0.00905,0.009524 -5.154e-4,7.6655e-4 -0.00203,0.0022751 -0.00337,0.0033522 -0.00134,0.0010771 -0.00239,0.0021458 -0.00233,0.0023748 5.43e-5,2.2917e-4 -7.358e-4,0.0011443 -0.00176,0.0020341 -0.00102,8.8972e-4 -0.00245,0.0021975 -0.00318,0.0029066 -7.27e-4,7.0912e-4 -0.00165,0.0015651 -0.00205,0.0019013 -0.00138,0.0011513 -0.00748,0.0076648 -0.00741,0.0079226 3.34e-5,1.415e-4 -9.414e-4,0.0011795 -0.00217,0.0023072 -0.00123,0.0011277 -0.00312,0.0031949 -0.00422,0.0045948 -0.00109,0.001399 -0.0029,0.003264 -0.004,0.004141 -0.00341,0.002716 -0.010223,0.009197 -0.014292,0.0136039 -0.00524,0.005667 -0.00812,0.008538 -0.010342,0.0102785 -0.00102,7.9976e-4 -0.00301,0.002713 -0.00443,0.004251 -0.00141,0.001538 -0.00335,0.003439 -0.00431,0.004224 -9.539e-4,7.8507e-4 -0.00186,0.001819 -0.00201,0.002298 -1.534e-4,4.7876e-4 -5.635e-4,8.9135e-4 -9.128e-4,9.1695e-4 -3.478e-4,2.549e-5 -0.00172,0.001284 -0.00305,0.002797 -0.00133,0.001512 -0.00269,0.002987 -0.00302,0.003277 -3.288e-4,2.8961e-4 -0.00175,0.001832 -0.00314,0.00343 -0.00275,0.003136 -0.0059,0.006262 -0.00917,0.009103 -0.00113,9.8443e-4 -0.00203,0.001967 -0.00198,0.002183 4.07e-5,2.1572e-4 -9.936e-4,0.001257 -0.0023,0.002314 -0.0013,0.001057 -0.00233,0.002094 -0.00228,0.002305 5.01e-5,2.1145e-4 -0.00168,0.001894 -0.00385,0.00374 -0.00217,0.001846 -0.00571,0.005014 -0.0079,0.007042 -0.00217,0.002027 -0.00458,0.004163 -0.00533,0.004746 -7.568e-4,5.8314e-4 -0.00225,0.001761 -0.00331,0.002619 -0.00107,8.5769e-4 -0.00239,0.001592 -0.00294,0.001633 -10e-4,7.34e-5 -0.00456,-0.003585 -0.0049,-0.005036 -1.636e-4,-6.9116e-4 -0.0055,-0.003255 -0.0066,-0.003174 -2.643e-4,1.937e-5 -0.00406,-6.0608e-4 -0.00843,-0.001389 -0.012754,-0.002289 -0.020648,-0.003244 -0.025625,-0.003105 -0.00255,7.213e-5 -0.00669,4.453e-5 -0.00916,-6.267e-5 -0.00249,-1.0646e-4 -0.00541,-9.7e-5 -0.0065,2.144e-5 -0.0026,2.819e-4 -0.014782,1.4509e-4 -0.015904,-1.7886e-4 -4.803e-4,-1.3869e-4 -0.00293,-4.5873e-4 -0.00545,-7.1081e-4 -0.00736,-7.3581e-4 -0.012859,-0.001634 -0.015,-0.002445 -0.00223,-8.4365e-4 -0.00235,-0.002219 -3.967e-4,-0.004352 6.113e-4,-6.6728e-4 0.00267,-0.003059 0.00457,-0.005315 0.00191,-0.002256 0.00539,-0.005872 0.00775,-0.008036 0.00236,-0.002164 0.00465,-0.004267 0.00508,-0.004673 4.321e-4,-4.0602e-4 0.00158,-0.001453 0.00256,-0.002327 9.734e-4,-8.7377e-4 0.0032,-0.003176 0.00495,-0.005117 0.00399,-0.004412 0.00582,-0.006277 0.0088,-0.008947 0.00129,-0.001159 0.00233,-0.002233 0.00229,-0.002386 -3.61e-5,-1.5281e-4 0.0012,-0.001512 0.00274,-0.00302 0.00583,-0.005686 0.00795,-0.007901 0.013408,-0.0139538 0.00308,-0.003423 0.00604,-0.00674 0.00656,-0.007369 0.00412,-0.004973 0.00981,-0.01206893 0.01,-0.01246221 1.231e-4,-2.644e-4 0.00114,-0.0014651 0.00225,-0.0026686 0.00208,-0.0022405 0.00794,-0.0095457 0.00787,-0.009821 -5.03e-5,-2.1284e-4 0.00408,-0.0054503 0.00487,-0.0061824 6.943e-4,-6.3991e-4 0.00505,-0.0069761 0.00695,-0.01011456 6.311e-4,-0.0010422 0.00182,-0.0025686 0.00266,-0.0033924 8.338e-4,-8.2393e-4 0.00191,-0.0022272 0.0024,-0.0031184 4.848e-4,-8.9119e-4 0.00175,-0.0027027 0.00281,-0.0040252 0.00106,-0.0013226 0.00246,-0.0032585 0.00311,-0.0043021 6.523e-4,-0.0010438 0.00183,-0.0027597 0.00261,-0.0038128 7.797e-4,-0.0010531 0.00272,-0.0038438 0.0043,-0.0062005 0.00159,-0.0023575 0.00326,-0.0046192 0.00372,-0.0050262 4.593e-4,-4.0715e-4 0.00199,-0.0024548 0.00341,-0.0045508 0.00142,-0.0020961 0.00326,-0.0043701 0.00409,-0.0050531 8.319e-4,-6.8345e-4 0.00184,-0.0017758 0.00225,-0.0024285 4.038e-4,-6.5206e-4 0.00185,-0.002286 0.00322,-0.0036311 0.00137,-0.0013451 0.00263,-0.0029422 0.00281,-0.0035488 1.81e-4,-6.0686e-4 0.00128,-0.0023514 0.00243,-0.0038761 0.00115,-0.00152467 0.00207,-0.0028826 0.00204,-0.00301723 -3.18e-5,-1.347e-4 0.00114,-0.0015529 0.0026,-0.00315232 l 0.00266,-0.00290743 0.00315,8.8257e-4 c 0.00174,4.8509e-4 0.00353,8.5495e-4 0.00399,8.2153e-4 0.00101,-7.412e-5 0.013103,0.00172366 0.014332,0.00213143 4.854e-4,1.6103e-4 0.00332,5.5111e-4 0.00631,8.659e-4 0.00298,3.1547e-4 0.00694,8.3031e-4 0.00881,0.00114384 0.00186,3.1424e-4 0.00489,7.1898e-4 0.00672,9.0059e-4 0.00183,1.8163e-4 0.00373,4.5578e-4 0.00421,6.1027e-4 4.838e-4,1.5422e-4 0.00386,5.131e-4 0.00751,7.9741e-4 0.00365,2.843e-4 0.00703,6.5192e-4 0.00752,8.1734e-4 0.00178,6.0161e-4 0.014773,7.1807e-4 0.0219,1.9568e-4 0.0058,-4.248e-4 0.00947,-0.0010255 0.01773,-0.00289644 0.00573,-0.00129827 0.011803,-0.00267191 0.013495,-0.00305248 0.00169,-3.8065e-4 0.00357,-9.786e-4 0.00416,-0.00132878 5.948e-4,-3.5025e-4 0.00235,-0.00107498 0.0039,-0.00161049 0.00155,-5.3553e-4 0.00278,-0.00115057 0.00273,-0.001366737 -5.12e-5,-2.1617359e-4 0.00122,-0.0010286395 0.00283,-0.001805453 0.00173,-8.3828e-4 0.00284,-0.00176203 0.00272,-0.00227252 -1.119e-4,-4.7307e-4 4.851e-4,-0.00188529 0.00133,-0.0031382 0.00176,-0.00261649 0.00211,-0.00432228 0.0021,-0.01012321 -6.2e-6,-0.0036939 -2.012e-4,-0.0043315 -0.00173,-0.0056451 -0.00214,-0.001846 -0.00785,-0.0030755 -0.010107,-0.0021761 -0.00107,4.2582e-4 -0.00217,4.5748e-4 -0.00414,1.1897e-4 -0.00207,-3.5413e-4 -0.00827,-1.1902e-4 -0.026743,0.0010141 -0.013225,8.1485e-4 -0.028075,0.001479 -0.032996,0.0014794 -0.015671,1.21e-6 -0.029867,-2.6769e-4 -0.034363,-6.5088e-4 -0.00461,-3.9302e-4 -0.01505,2.1603e-4 -0.017622,0.0010282 z m -0.4643023,0.46125249 c 0.00184,2.2057e-4 0.00834,6.0987e-4 0.014447,8.6663e-4 0.00964,4.0515e-4 0.014826,9.6193e-4 0.020024,0.00215 7.094e-4,1.6223e-4 0.00278,4.2748e-4 0.00461,5.8966e-4 0.00182,1.6215e-4 0.00408,4.1873e-4 0.00502,5.705e-4 0.00148,2.4072e-4 0.00584,3.8346e-4 0.01578,5.1576e-4 0.00146,1.956e-5 0.00269,2.1376e-4 0.00274,4.3171e-4 5.16e-5,2.1796e-4 0.00176,2.7424e-4 0.0038,1.2455e-4 0.00203,-1.4897e-4 0.00505,-1.8046e-4 0.00669,-6.876e-5 0.00164,1.1166e-4 0.0052,2.8084e-4 0.00791,3.7636e-4 0.00271,9.551e-5 0.00546,3.576e-4 0.00612,5.8235e-4 0.00106,3.6116e-4 0.023579,-7.3154e-4 0.034697,-0.001684 0.014825,-0.001269 0.029223,-0.002158 0.03258,-0.00201 0.0022,9.664e-5 0.00637,1.5076e-4 0.00927,1.1988e-4 0.0029,-3.083e-5 0.00581,7.907e-5 0.00646,2.4455e-4 0.00235,5.9936e-4 0.0073,6.8121e-4 0.013027,2.1623e-4 0.00747,-6.0656e-4 0.011079,-2.3399e-4 0.012779,0.001318 8.168e-4,7.4532e-4 0.00225,0.001276 0.0038,0.001405 0.00236,1.9627e-4 0.00261,3.9578e-4 0.00445,0.003674 0.00271,0.004805 0.00328,0.007175 0.00225,0.009344 -0.00161,0.003394 -0.00247,0.006912 -0.00264,0.0108178 -9.5e-5,0.002123 -3.458e-4,0.005401 -5.461e-4,0.007283 -7.511e-4,0.006843 -5.714e-4,0.0104159 9.905e-4,0.0202993 8.778e-4,0.005538 0.00172,0.0120969 0.00189,0.0145749 1.569e-4,0.002479 5.021e-4,0.006324 7.712e-4,0.008545 2.651e-4,0.002222 4.221e-4,0.005265 3.499e-4,0.006764 -1.945e-4,0.004038 0.00115,0.0190102 0.00229,0.0254102 5.454e-4,0.003073 0.00113,0.007721 0.00129,0.0103303 1.657e-4,0.002609 0.00207,0.0120446 0.00423,0.0209673 0.011426,0.0471908 0.014973,0.0647929 0.014428,0.0715894 -1.01e-4,0.001252 -2.837e-4,0.003405 -4.013e-4,0.004783 -2.008e-4,0.00227 -9.12e-5,0.004602 8.278e-4,0.0178213 1.549e-4,0.00223 0.00183,0.0116183 0.00372,0.0208637 l 0.00343,0.0168102 -0.010846,0.007727 c -0.013862,0.009875 -0.015511,0.0110113 -0.016038,0.01105 -2.384e-4,1.748e-5 -0.0022,0.001129 -0.00438,0.002471 -0.00694,0.004293 -0.011812,0.006915 -0.015403,0.008293 -0.00192,7.3881e-4 -0.00372,0.001652 -0.004,0.002029 -2.716e-4,3.7656e-4 -0.0022,0.001206 -0.00428,0.001844 -0.00542,0.001656 -0.00681,0.004572 -0.0031,0.006473 0.00339,0.001733 0.00548,0.001366 0.01119,-0.001966 0.0029,-0.001688 0.0069,-0.004131 0.0089,-0.005428 0.00334,-0.002169 0.0091,-0.005384 0.016813,-0.009383 0.00168,-8.7012e-4 0.00521,-0.003359 0.00784,-0.005532 0.00263,-0.002173 0.00626,-0.004848 0.00804,-0.005945 0.00179,-0.001097 0.00434,-0.002782 0.00569,-0.003745 0.00134,-9.6185e-4 0.00501,-0.003271 0.00814,-0.00513 0.00314,-0.00186 0.00601,-0.003657 0.00638,-0.003995 3.677e-4,-3.3679e-4 0.00159,-9.7186e-4 0.00271,-0.001412 0.00113,-4.3983e-4 0.00577,-0.003461 0.01033,-0.006714 0.00514,-0.003672 0.00891,-0.00596 0.00992,-0.006035 0.00153,-1.1191e-4 0.0073,0.00285 0.00754,0.003872 5.3e-5,2.239e-4 9.017e-4,7.1679e-4 0.00188,0.001096 9.843e-4,3.7852e-4 0.00188,0.001066 0.00199,0.001528 1.093e-4,4.6176e-4 0.00158,0.002045 0.00327,0.003519 0.00169,0.001474 0.00315,0.002938 0.00323,0.003253 2.857e-4,0.001076 0.00933,0.006891 0.017489,0.0112462 0.00448,0.002391 0.0082,0.004567 0.00827,0.004836 6.36e-5,2.6887e-4 4.346e-4,4.6549e-4 8.245e-4,4.3691e-4 3.899e-4,-2.857e-5 0.00316,0.001245 0.00616,0.002831 0.003,0.001586 0.00591,0.003053 0.00647,0.003261 5.598e-4,2.0796e-4 0.0021,0.001117 0.00342,0.00202 0.00132,9.0293e-4 0.00491,0.002748 0.00797,0.004099 0.00306,0.001351 0.00561,0.002627 0.00566,0.002835 4.92e-5,2.0778e-4 -0.00125,0.00115 -0.00288,0.002092 -0.00163,9.4295e-4 -0.00552,0.003481 -0.00863,0.005639 -0.00518,0.003593 -0.013999,0.008154 -0.016059,0.008305 -4.667e-4,3.435e-5 -0.00146,4.7013e-4 -0.00221,9.6835e-4 -7.495e-4,4.9823e-4 -0.0024,0.001383 -0.00365,0.001965 -0.00621,0.002874 -0.00911,0.00443 -0.01405,0.007536 -0.00296,0.00186 -0.00819,0.005115 -0.011627,0.007235 -0.00344,0.002119 -0.00804,0.004974 -0.010221,0.006342 -0.00218,0.001369 -0.00531,0.003169 -0.00696,0.004002 -0.00165,8.3225e-4 -0.00454,0.002554 -0.00642,0.003826 -0.00188,0.001271 -0.00586,0.003213 -0.00884,0.004315 -0.00532,0.001967 -0.00542,0.002032 -0.00502,0.003707 4.253e-4,0.001797 0.00141,0.00218 0.00495,0.001921 0.00187,-1.3734e-4 0.00734,-0.002218 0.00769,-0.002926 1.012e-4,-2.0237e-4 5.39e-4,-3.9396e-4 9.685e-4,-4.2544e-4 0.00148,-1.0827e-4 0.0141,-0.006846 0.01868,-0.009971 6.135e-4,-4.1845e-4 0.00249,-0.001575 0.00418,-0.00257 0.00169,-9.9539e-4 0.00391,-0.00235 0.00494,-0.00301 0.00102,-6.6033e-4 0.00285,-0.001584 0.00406,-0.002052 0.00212,-8.2528e-4 0.00227,-8.1401e-4 0.00476,3.7584e-4 0.00141,6.7487e-4 0.00293,0.001201 0.00337,0.001168 4.46e-4,-3.268e-5 8.487e-4,1.0059e-4 8.95e-4,2.9616e-4 4.62e-5,1.9559e-4 0.00137,5.1203e-4 0.00294,7.0362e-4 0.00157,1.9159e-4 0.00312,6.2779e-4 0.00346,9.6909e-4 3.331e-4,3.4155e-4 0.00113,5.8274e-4 0.00176,5.3632e-4 0.00145,-1.0609e-4 0.00642,9.9413e-4 0.00653,0.001446 4.58e-5,1.8338e-4 6.237e-4,2.9382e-4 0.00129,2.4509e-4 6.596e-4,-4.835e-5 0.00125,1.1232e-4 0.0013,3.5707e-4 5.79e-5,2.4475e-4 5.955e-4,4.0906e-4 0.0012,3.6506e-4 5.991e-4,-4.392e-5 0.00401,8.2285e-4 0.00758,0.001926 0.00357,0.001103 0.00782,0.002224 0.00945,0.00249 0.00163,2.6675e-4 0.00393,7.0929e-4 0.00511,9.8377e-4 0.00455,0.001053 0.018005,0.003429 0.019017,0.003355 5.835e-4,-4.277e-5 0.00201,2.2481e-4 0.00316,5.9558e-4 0.00116,3.7006e-4 0.00381,9.0625e-4 0.00588,0.001192 0.00208,2.8473e-4 0.00438,7.3403e-4 0.00512,9.9666e-4 7.333e-4,2.6333e-4 0.00393,6.3748e-4 0.00712,8.3103e-4 0.00334,2.0334e-4 0.00771,8.7813e-4 0.010343,0.001596 0.00519,0.001411 0.00495,8.0313e-4 0.00311,0.007862 -5.991e-4,0.002285 -0.00201,0.005463 -0.00314,0.007065 -0.00113,0.001601 -0.002,0.003161 -0.00192,0.003467 7.25e-5,3.0658e-4 -0.0012,0.002316 -0.00282,0.004464 -0.00416,0.005498 -0.00912,0.0138396 -0.00886,0.0149091 1.172e-4,4.9501e-4 -5.79e-5,0.001493 -3.889e-4,0.002218 -3.311e-4,7.2521e-4 -5.48e-4,0.002842 -4.704e-4,0.004704 1.856e-4,0.00487 -9.44e-5,0.01175 -4.905e-4,0.0120367 -1.859e-4,1.3479e-4 -0.00249,5.3133e-4 -0.00511,8.8079e-4 -0.00414,5.5106e-4 -0.0054,5.2302e-4 -0.00949,-2.088e-4 -0.0026,-4.6415e-4 -0.00506,-8.1966e-4 -0.00546,-7.8986e-4 -4.076e-4,2.988e-5 -0.00168,-2.5735e-4 -0.00284,-6.3787e-4 -0.00116,-3.805e-4 -0.00419,-0.001005 -0.00674,-0.001388 -0.00655,-9.8271e-4 -0.00754,-0.001429 -0.00596,-0.002697 0.00154,-0.001242 5.282e-4,-0.001873 -0.00388,-0.002411 -0.00172,-2.0977e-4 -0.00501,-8.2725e-4 -0.0073,-0.001371 -0.0023,-5.437e-4 -0.00509,-0.001046 -0.0062,-0.001117 -0.00111,-7.132e-5 -0.0025,-3.7942e-4 -0.00309,-6.8546e-4 -5.929e-4,-3.056e-4 -0.00169,-5.1047e-4 -0.00245,-4.5525e-4 -7.554e-4,5.537e-5 -0.00383,-3.5147e-4 -0.00682,-9.0413e-4 -0.015808,-0.002913 -0.019429,-0.003478 -0.023573,-0.003679 -0.00249,-1.2066e-4 -0.00492,-3.4995e-4 -0.00541,-5.0985e-4 -4.852e-4,-1.5963e-4 -0.00333,-5.6261e-4 -0.00631,-8.9584e-4 -0.00298,-3.3353e-4 -0.00582,-7.2728e-4 -0.00631,-8.7503e-4 -9.171e-4,-2.8136e-4 -0.010722,-0.00122 -0.014981,-0.001435 -0.00136,-6.845e-5 -0.00343,-3.0357e-4 -0.0046,-5.2284e-4 -0.00289,-5.4119e-4 -0.00755,-0.001079 -0.010037,-0.001157 -0.00113,-3.535e-5 -0.0028,-1.73e-4 -0.00373,-3.0534e-4 -0.010033,-0.001436 -0.010513,-0.001598 -0.013286,-0.004479 -0.00101,-0.001047 -0.00394,-0.003671 -0.00653,-0.00583 -0.00403,-0.003368 -0.00626,-0.004632 -0.015633,-0.008877 -0.013603,-0.006159 -0.022376,-0.008948 -0.036942,-0.0117447 -0.00141,-2.7001e-4 -0.00276,-5.8202e-4 -0.00301,-6.935e-4 -0.00117,-5.2024e-4 -0.014529,-0.001807 -0.020365,-0.001961 -0.00358,-9.476e-5 -0.00677,-3.4081e-4 -0.00707,-5.4703e-4 -3.028e-4,-2.0648e-4 -0.00552,-5.4915e-4 -0.011596,-7.6091e-4 -0.00607,-2.1212e-4 -0.01143,-5.4108e-4 -0.011899,-7.3059e-4 -4.7e-4,-1.9017e-4 -0.00177,-2.8169e-4 -0.00289,-2.0333e-4 -0.00112,7.855e-5 -0.00247,2.41e-5 -0.00297,-1.2157e-4 -0.00183,-5.1935e-4 -0.00525,-0.006397 -0.0075,-0.0129112 -0.00126,-0.003643 -0.00308,-0.008704 -0.00402,-0.0112491 -9.536e-4,-0.002544 -0.00215,-0.006793 -0.00266,-0.009441 -5.071e-4,-0.002648 -0.00135,-0.005143 -0.00186,-0.005544 -0.00133,-0.001033 -0.00365,-0.006614 -0.011466,-0.0275292 -0.00127,-0.003393 -0.00295,-0.008057 -0.00373,-0.010365 -7.846e-4,-0.002308 -0.00234,-0.006574 -0.00345,-0.00948 -0.00303,-0.007887 -0.00467,-0.0130263 -0.00781,-0.0245531 -0.00157,-0.005736 -0.00379,-0.0129073 -0.00494,-0.0159354 -0.00115,-0.003028 -0.00343,-0.0102963 -0.00507,-0.0161521 -0.00289,-0.0103292 -0.0064,-0.0199903 -0.011557,-0.031748 -0.00137,-0.003136 -0.00304,-0.007089 -0.00369,-0.008784 -0.00201,-0.005157 -0.00503,-0.0128237 -0.00808,-0.0204588 -0.00159,-0.003992 -0.00415,-0.0109343 -0.0057,-0.0154272 -0.00154,-0.004493 -0.00353,-0.009338 -0.00441,-0.0107678 -0.00166,-0.00266 -0.00764,-0.0265227 -0.012213,-0.0486764 -0.00172,-0.008357 -0.00801,-0.0352334 -0.01155,-0.0494041 -0.00151,-0.006038 -0.0049,-0.0163129 -0.0075,-0.0227644 -0.00157,-0.003869 -0.00318,-0.007868 -0.00359,-0.008887 -4.084e-4,-0.001018 -5.581e-4,-0.001985 -3.327e-4,-0.002149 5.474e-4,-3.9703e-4 0.00619,-2.7689e-4 0.010346,2.2009e-4 z m 0.182976,0.004978 c -0.00152,4.8848e-4 -0.00162,6.2368e-4 -4.721e-4,6.9098e-4 0.00163,9.65e-5 0.00426,-8.4614e-4 0.00311,-0.001117 -4.164e-4,-9.918e-5 -0.00161,9.324e-5 -0.00265,4.2706e-4 z m 0.00766,5.3587e-4 c 8.047e-4,5.578e-5 0.00188,-3.047e-5 0.0024,-1.9231e-4 5.125e-4,-1.6157e-4 -1.459e-4,-2.072e-4 -0.00147,-1.0123e-4 -0.00132,1.0554e-4 -0.00174,2.3814e-4 -9.318e-4,2.9378e-4 z m 0.028363,-0.25670133 c -6.186e-4,3.5657e-4 -0.00124,0.001259 -0.00136,0.002004 -1.325e-4,7.4614e-4 -0.00128,0.002193 -0.00254,0.003214 -0.00127,0.001022 -0.00255,0.002754 -0.00283,0.003849 -4.249e-4,0.00159 -0.00349,0.005229 -0.00562,0.006665 -2.07e-4,1.3967e-4 -0.00122,0.001191 -0.00225,0.002335 -0.00103,0.001145 -0.00223,0.002251 -0.00267,0.002459 -4.358e-4,2.079e-4 -0.0018,0.00147 -0.00302,0.002804 -0.00123,0.001335 -0.00243,0.002544 -0.00268,0.002687 -2.502e-4,1.4283e-4 -0.00213,0.001706 -0.00418,0.003476 -0.00205,0.001769 -0.00485,0.004101 -0.00623,0.005185 -0.00138,0.001083 -0.00246,0.002149 -0.0024,0.002369 5.2e-5,2.1992e-4 -0.00127,0.001725 -0.00293,0.003344 -0.00166,0.001619 -0.00316,0.003287 -0.00332,0.003709 -1.645e-4,4.2144e-4 -7.297e-4,0.001103 -0.00126,0.001515 -0.00329,0.002575 -0.00742,0.00752 -0.00838,0.0100214 -0.00111,0.00292 -0.00565,0.008391 -0.00953,0.0115026 -0.00113,9.0466e-4 -0.00199,0.00192 -0.00191,0.002255 7.94e-5,3.357e-4 -4.894e-4,0.001026 -0.00126,0.001533 -7.747e-4,5.0744e-4 -0.00135,0.001146 -0.00129,0.00142 6.47e-5,2.7345e-4 -8.314e-4,0.001346 -0.002,0.002385 -0.00117,0.001038 -0.00283,0.002934 -0.00368,0.004214 -0.00362,0.0054 -0.00902,0.0114563 -0.012892,0.0144773 -0.00228,0.001779 -0.00428,0.003657 -0.00445,0.004174 -1.623e-4,5.1621e-4 -0.00149,0.001839 -0.00297,0.002941 -0.00146,0.001101 -0.0026,0.002257 -0.00253,0.00257 7.4e-5,3.1278e-4 -9.636e-4,0.001341 -0.0023,0.002286 -0.00288,0.002026 -0.00281,0.003058 4.184e-4,0.005783 0.00383,0.003245 0.014356,0.008156 0.019875,0.009278 0.00167,3.4121e-4 0.00357,8.9124e-4 0.00421,0.001222 6.421e-4,3.31e-4 0.00299,7.9637e-4 0.00521,0.001034 0.00222,2.3773e-4 0.00454,6.8995e-4 0.00515,0.001005 6.112e-4,3.1506e-4 0.00156,5.3991e-4 0.00212,4.9922e-4 0.00138,-1.0101e-4 0.00876,0.003222 0.012112,0.005451 0.00152,0.001009 0.00342,0.002066 0.00424,0.002348 8.142e-4,2.8208e-4 0.00154,7.5246e-4 0.00161,0.001045 6.94e-5,2.9312e-4 0.00158,0.001259 0.00335,0.002148 0.00177,8.8773e-4 0.00327,0.001797 0.00332,0.002019 5.27e-5,2.2258e-4 0.00154,0.001099 0.00331,0.001949 0.00176,8.4966e-4 0.00324,0.001661 0.00327,0.001804 6.77e-5,2.8315e-4 0.0069,0.002076 0.010626,0.002791 0.00201,3.8521e-4 0.00362,2.4407e-4 0.01136,-9.9551e-4 0.00957,-0.001533 0.00992,-0.001634 0.016747,-0.004845 0.00419,-0.001973 0.010974,-0.006739 0.0108,-0.00759 -4.6e-5,-2.2154e-4 0.00138,-0.00158 0.00316,-0.003017 0.00179,-0.001438 0.00384,-0.00321 0.00456,-0.003936 7.228e-4,-7.2665e-4 0.0021,-0.002019 0.00307,-0.002872 9.681e-4,-8.5307e-4 0.00227,-0.002506 0.00291,-0.003673 6.344e-4,-0.001167 0.00193,-0.002707 0.00287,-0.00342 9.506e-4,-7.1423e-4 0.00218,-0.002 0.00273,-0.002857 5.56e-4,-8.5757e-4 0.00197,-0.002573 0.00316,-0.003813 0.00118,-0.001239 0.00282,-0.003334 0.00364,-0.004653 0.00187,-0.002987 0.00656,-0.008376 0.00736,-0.008435 3.256e-4,-2.387e-5 0.00107,-7.4571e-4 0.00166,-0.001604 5.858e-4,-8.5812e-4 0.00194,-0.002231 0.00301,-0.00305 0.0032,-0.00245 0.018132,-0.0124853 0.025294,-0.0170032 0.00368,-0.002319 0.00724,-0.004742 0.00792,-0.005383 0.0013,-0.001224 0.011407,-0.007357 0.012215,-0.007416 2.575e-4,-1.887e-5 0.0026,-0.001566 0.00521,-0.003438 0.0026,-0.001871 0.00629,-0.004498 0.00817,-0.005836 0.00429,-0.003046 0.00652,-0.004821 0.00645,-0.005136 -3.17e-5,-1.3391e-4 7.274e-4,-0.001743 0.00168,-0.003573 0.00165,-0.003165 0.00167,-0.003515 2.895e-4,-0.007046 -0.00109,-0.002787 -0.002,-0.004056 -0.00363,-0.005079 -0.0035,-0.002194 -0.00629,-0.003479 -0.010519,-0.004855 -0.00219,-7.0945e-4 -0.00412,-0.001434 -0.00431,-0.001608 -1.905e-4,-1.7464e-4 -8.009e-4,-2.8418e-4 -0.00136,-2.433e-4 -5.557e-4,4.073e-5 -0.00194,-2.6534e-4 -0.00307,-6.807e-4 -0.00113,-4.1538e-4 -0.00258,-7.1632e-4 -0.00322,-6.6909e-4 -0.0012,8.793e-5 -0.00787,-0.001215 -0.00875,-0.00171 -4.535e-4,-2.5613e-4 -0.00246,-3.9753e-4 -0.012269,-8.6488e-4 -0.00197,-9.409e-5 -0.00537,-6.968e-4 -0.00756,-0.00134 -0.00963,-0.002835 -0.010784,-0.003159 -0.011145,-0.003133 -2.081e-4,1.525e-5 -0.0019,-4.2061e-4 -0.00376,-9.6911e-4 -0.00186,-5.4807e-4 -0.00412,-0.001197 -0.00501,-0.001442 -0.010031,-0.002752 -0.013807,-0.003719 -0.018935,-0.004845 -0.00886,-0.001946 -0.01509,-0.003614 -0.015198,-0.004069 -5.23e-5,-2.2076e-4 -8.548e-4,-4.7671e-4 -0.00179,-5.6843e-4 -9.286e-4,-9.216e-5 -0.00351,-8.3341e-4 -0.00573,-0.001648 -0.00427,-0.001568 -0.00813,-0.001736 -0.010357,-4.513e-4 z m 0.012263,0.00846 c 0.00191,8.368e-4 0.00436,0.001578 0.00543,0.001647 0.00108,6.939e-5 0.002,3.248e-4 0.00206,5.6768e-4 5.75e-5,2.4292e-4 0.0025,8.7209e-4 0.00541,0.001398 0.00292,5.2588e-4 0.00676,0.001311 0.00851,0.001747 0.00177,4.3505e-4 0.00604,0.001483 0.0095,0.002328 0.00564,0.001377 0.012564,0.003412 0.013803,0.004058 2.551e-4,1.3296e-4 0.00187,4.1184e-4 0.00361,6.189e-4 0.00172,2.0778e-4 0.00317,5.3125e-4 0.00322,7.1903e-4 4.44e-5,1.8774e-4 0.00101,5.3433e-4 0.00215,7.7014e-4 0.00114,2.3596e-4 0.00364,0.00105 0.00556,0.001808 0.00304,0.0012 0.00421,0.00137 0.00893,0.001306 0.00569,-7.675e-5 0.01313,6.0003e-4 0.014902,0.001357 5.701e-4,2.4343e-4 0.00134,4.2036e-4 0.00171,3.9347e-4 3.704e-4,-2.715e-5 0.00116,1.2442e-4 0.00174,3.3743e-4 5.906e-4,2.1258e-4 0.00338,0.001123 0.00621,0.002022 0.00766,0.00244 0.010507,0.004291 0.011216,0.007291 4.511e-4,0.001907 -1.028e-4,0.004297 -0.00114,0.004863 -2.721e-4,1.4952e-4 -0.00153,0.001264 -0.00278,0.002476 -0.00126,0.001213 -0.00542,0.00437 -0.00925,0.007016 -0.00383,0.002646 -0.010444,0.007241 -0.014701,0.0102106 -0.00853,0.00595 -0.010861,0.007392 -0.014431,0.008922 -0.00132,5.6556e-4 -0.00236,0.001178 -0.00232,0.001359 7.31e-5,3.0896e-4 -0.00519,0.004039 -0.00861,0.00611 -0.00455,0.002748 -0.00781,0.00452 -0.0084,0.004564 -7.648e-4,5.606e-5 -0.00857,0.007322 -0.012273,0.011425 -0.00227,0.002514 -0.00466,0.003632 -0.00567,0.002652 -5.784e-4,-5.5962e-4 -0.00977,-0.002914 -0.013331,-0.003416 -0.00939,-0.001322 -0.022386,-0.004293 -0.023452,-0.005363 -1.955e-4,-1.9617e-4 -8.16e-4,-3.2295e-4 -0.00138,-2.8177e-4 -0.00201,1.4751e-4 -0.023501,-0.007013 -0.029666,-0.009887 -0.00178,-8.3009e-4 -0.00463,-0.002038 -0.00632,-0.002683 -0.00457,-0.001734 -0.00893,-0.003897 -0.010272,-0.005091 -9.249e-4,-8.2391e-4 -9.985e-4,-0.001334 -3.398e-4,-0.002354 4.625e-4,-7.1649e-4 9.964e-4,-0.001416 0.0012,-0.001555 9.834e-4,-7.0338e-4 0.00379,-0.00391 0.00507,-0.005804 8.002e-4,-0.001179 0.00211,-0.002803 0.00291,-0.003608 7.976e-4,-8.0542e-4 0.00161,-0.001985 0.00179,-0.002622 1.863e-4,-6.3613e-4 0.00117,-0.002069 0.00219,-0.003185 0.00102,-0.001115 0.00183,-0.002116 0.0018,-0.002223 -6.75e-5,-2.8516e-4 0.00559,-0.006576 0.00747,-0.008318 8.849e-4,-8.2102e-4 0.00185,-0.001714 0.00213,-0.001984 0.00336,-0.003175 0.010528,-0.009146 0.011023,-0.009183 3.513e-4,-2.575e-5 8.257e-4,-5.4591e-4 0.00106,-0.001156 2.285e-4,-6.0997e-4 0.00188,-0.00231 0.00368,-0.003777 0.00557,-0.004555 0.010066,-0.009359 0.012347,-0.0131812 0.00121,-0.002018 0.00264,-0.003702 0.0032,-0.003743 5.571e-4,-4.083e-5 0.00258,6.1059e-4 0.00449,0.001447 z m -0.058448,0.0692155 c 0.00223,7.9629e-4 0.00412,0.001711 0.00419,0.002033 7.61e-5,3.2186e-4 0.0015,9.2592e-4 0.00316,0.001343 0.00166,4.1678e-4 0.00306,9.1244e-4 0.0031,0.001101 1.306e-4,5.5193e-4 0.013078,0.005944 0.017626,0.007339 0.00229,7.0328e-4 0.00482,0.001537 0.00563,0.001851 8.072e-4,3.1432e-4 0.0028,8.1586e-4 0.00442,0.001114 0.00162,2.9873e-4 0.00512,0.001216 0.00777,0.002038 0.00417,0.001292 0.00736,0.002003 0.012882,0.002877 6.971e-4,1.1025e-4 0.00321,6.7471e-4 0.00558,0.001254 0.00238,5.7919e-4 0.00604,0.001341 0.00813,0.001694 0.00774,0.001303 0.00934,0.001642 0.00942,0.002008 1.104e-4,4.6643e-4 -0.00233,0.003339 -0.00529,0.006242 -0.00124,0.001211 -0.00296,0.003273 -0.00382,0.004581 -8.606e-4,0.001308 -0.00245,0.003258 -0.00353,0.004333 -0.00109,0.001076 -0.00314,0.003161 -0.00456,0.004635 -0.00244,0.002522 -0.0056,0.005149 -0.011507,0.009574 -0.00459,0.003439 -0.015715,0.006386 -0.023608,0.006254 -0.00336,-5.565e-5 -0.00946,-0.002455 -0.012403,-0.004877 -0.00111,-9.1385e-4 -0.00226,-0.001746 -0.00256,-0.001849 -2.93e-4,-1.0303e-4 -0.00179,-9.886e-4 -0.00331,-0.001968 -0.00153,-9.79e-4 -0.00347,-0.002221 -0.00432,-0.002758 -8.486e-4,-5.376e-4 -0.00412,-0.002205 -0.00727,-0.003707 -0.00315,-0.001501 -0.00652,-0.003159 -0.00748,-0.003682 -9.641e-4,-5.2379e-4 -0.00269,-0.001012 -0.00383,-0.001086 -0.00115,-7.316e-5 -0.00213,-3.2988e-4 -0.00218,-5.7e-4 -5.68e-5,-2.4006e-4 -4.669e-4,-4.0983e-4 -9.115e-4,-3.7725e-4 -0.00157,1.1481e-4 -0.00889,-0.001354 -0.012304,-0.002469 -0.01153,-0.003769 -0.013132,-0.005632 -0.00782,-0.00909 0.00216,-0.001405 0.00304,-0.002335 0.0026,-0.002762 -3.606e-4,-3.5448e-4 -9.357e-4,-9.1927e-4 -0.00128,-0.001255 -3.754e-4,-3.6824e-4 5.676e-4,-0.00156 0.00238,-0.003003 0.00434,-0.003461 0.00865,-0.007403 0.00856,-0.007814 -4.62e-5,-1.9504e-4 5.101e-4,-8.1868e-4 0.00124,-0.001386 7.26e-4,-5.6727e-4 0.00232,-0.00253 0.00353,-0.004362 0.00293,-0.004426 0.00631,-0.008257 0.00784,-0.008896 0.00167,-6.9356e-4 0.0048,-1.7307e-4 0.00989,0.001645 z m -0.059942,0.5771219 c -1.797e-4,1.303e-4 -0.00257,7.2769e-4 -0.00531,0.001328 -0.0077,0.001684 -0.015474,0.004796 -0.019152,0.007667 -0.00176,0.001377 -0.00414,0.003194 -0.00528,0.004038 -0.00203,0.001509 -0.00324,0.002769 -0.00398,0.004165 -2.049e-4,3.885e-4 -0.00101,0.001873 -0.00178,0.0033 -7.72e-4,0.001426 -0.00152,0.004231 -0.00165,0.006232 -1.382e-4,0.002002 -3.582e-4,0.004667 -4.951e-4,0.005922 -1.356e-4,0.001255 -6.38e-5,0.003146 1.596e-4,0.004202 5.227e-4,0.002473 -5.602e-4,0.002193 -0.00443,-0.001149 -0.00166,-0.001442 -0.00406,-0.003092 -0.00531,-0.003672 -0.00196,-9.034e-4 -0.00281,-9.9452e-4 -0.00603,-6.3919e-4 -0.00465,5.1155e-4 -0.00508,0.001531 -0.0013,0.003059 0.00371,0.001501 0.00703,0.003578 0.00922,0.005779 0.00104,0.001044 0.00284,0.002848 0.004,0.004007 0.00264,0.002631 0.00426,0.004894 0.00355,0.004946 -7.755e-4,5.684e-5 -0.00386,-0.002222 -0.00404,-0.002983 -8.31e-5,-3.5125e-4 -0.00111,-8.0211e-4 -0.00228,-0.001003 -0.00118,-1.9963e-4 -0.00256,-7.932e-4 -0.00307,-0.00132 -5.097e-4,-5.2594e-4 -0.00301,-0.001874 -0.00555,-0.002994 -0.00536,-0.002364 -0.00847,-0.002553 -0.00888,-5.4016e-4 -2.012e-4,9.6927e-4 2.985e-4,0.001421 0.00257,0.002324 0.00155,6.1677e-4 0.00291,0.00153 0.00303,0.002031 1.184e-4,5.0048e-4 0.00107,0.001421 0.00212,0.002048 0.00284,0.001702 0.00387,0.003694 0.00216,0.004212 -7.924e-4,2.394e-4 -0.00155,2.1177e-4 -0.0018,-6.477e-5 -6.495e-4,-7.4315e-4 -0.00953,-0.004386 -0.01051,-0.004306 -0.0033,2.6805e-4 -0.00362,0.002314 -6.769e-4,0.004343 0.0013,9.005e-4 0.00284,0.002051 0.0034,0.002556 5.636e-4,5.0556e-4 0.00232,0.00168 0.00391,0.002612 0.00158,9.3102e-4 0.00293,0.001896 0.00299,0.002146 5.91e-5,2.4993e-4 7.06e-4,7.3751e-4 0.00144,0.001084 7.317e-4,3.4598e-4 0.00175,0.001409 0.00226,0.002363 8.42e-4,0.001573 6.694e-4,0.001974 -0.00186,0.004313 -0.00167,0.001545 -0.00362,0.002747 -0.00486,0.002998 -0.00114,2.3016e-4 -0.00262,5.4694e-4 -0.0033,7.0364e-4 -6.825e-4,1.5695e-4 -0.00171,0.001143 -0.00228,0.00219 -5.673e-4,0.001048 -0.00197,0.002482 -0.00314,0.003187 -0.00159,9.6771e-4 -0.00203,0.001687 -0.00181,0.002933 2.738e-4,0.001498 5.17e-4,0.00165 0.00261,0.00163 0.00155,-1.477e-5 0.00276,-3.6578e-4 0.00364,-0.001059 7.304e-4,-5.7057e-4 0.00159,-0.001056 0.00189,-0.001078 6.211e-4,-4.506e-5 0.00431,0.003131 0.0075,0.00646 0.00111,0.00116 0.00222,0.002953 0.00247,0.003984 3.103e-4,0.001312 0.00126,0.002401 0.00316,0.003623 0.00271,0.001744 0.00744,0.006793 0.0078,0.008331 1.057e-4,4.4675e-4 9.07e-4,0.001402 0.00178,0.002122 8.735e-4,7.2039e-4 0.00257,0.003278 0.00377,0.005685 0.00208,0.004176 0.00212,0.004446 9.412e-4,0.00593 -0.00229,0.002871 -0.00122,0.003835 0.00692,0.006297 0.00185,5.6005e-4 0.00484,0.001487 0.00665,0.002059 0.0018,5.7362e-4 0.00546,0.001348 0.00813,0.001721 0.00267,3.7293e-4 0.00548,9.0559e-4 0.00625,0.001182 7.718e-4,2.7697e-4 0.00198,4.6165e-4 0.00267,4.1078e-4 6.979e-4,-5.116e-5 0.00266,6.7084e-4 0.00435,0.001605 0.00844,0.004644 0.0176,0.007099 0.027474,0.00736 0.00584,1.5405e-4 0.00993,-4.3695e-4 0.013258,-0.001913 0.00141,-6.2795e-4 0.00461,-0.001302 0.00834,-0.001755 0.00513,-6.2403e-4 0.00631,-6.3388e-4 0.00778,-6.279e-5 0.00208,7.9902e-4 0.00434,4.714e-4 0.010249,-0.001484 0.00478,-0.001582 0.00937,-0.003554 0.011553,-0.004963 0.00124,-8.0316e-4 0.00219,-9.708e-4 0.00534,-9.4025e-4 l 0.00381,3.838e-5 -2.18e-5,0.002103 c -1.93e-5,0.001871 2.255e-4,0.002193 0.00223,0.002932 0.00283,0.001041 0.01433,0.001555 0.018416,8.2287e-4 0.00334,-5.9893e-4 0.015213,-0.005675 0.019672,-0.008409 0.00167,-0.001028 0.00438,-0.002648 0.00601,-0.0036 0.00162,-9.5122e-4 0.00291,-0.001951 0.00284,-0.002221 -6.38e-5,-2.6972e-4 6.624e-4,-0.00108 0.00161,-0.001802 0.0032,-0.002425 0.00449,-0.0121308 0.00297,-0.022256 l -7.526e-4,-0.00501 -0.003,-9.112e-5 c -0.00185,-5.642e-5 -0.0033,1.241e-4 -0.00377,4.7063e-4 -4.259e-4,3.0893e-4 -7.129e-4,0.002017 -6.35e-4,0.003796 1.508e-4,0.003426 -6.478e-4,0.004807 -0.00191,0.003308 -0.00129,-0.001536 -0.00476,-0.0120691 -0.00438,-0.0133005 2.026e-4,-6.51e-4 4.525e-4,-0.001741 5.568e-4,-0.002421 2.158e-4,-0.001429 0.00588,-0.006084 0.00909,-0.00747 l 0.00219,-9.4328e-4 0.00198,0.002369 c 0.0014,0.001675 0.00202,0.003142 0.00214,0.005001 1.202e-4,0.001994 4.713e-4,0.002742 0.00145,0.003084 7.094e-4,2.485e-4 0.00138,8.2799e-4 0.00148,0.001287 2.883e-4,0.001218 0.00211,8.8755e-4 0.00468,-8.5256e-4 l 0.00225,-0.001525 -0.00169,-0.004967 c -0.00157,-0.004603 -0.00273,-0.006532 -0.00696,-0.0115984 -0.00215,-0.002575 -0.00216,-0.002919 -2.331e-4,-0.00501 0.00149,-0.001616 0.00154,-0.001973 4.043e-4,-0.003449 -0.00176,-0.002308 -0.00209,-0.00421 -0.0012,-0.006999 9.781e-4,-0.00307 0.00141,-0.003405 0.00389,-0.002984 0.00164,2.7963e-4 0.00212,1.7983e-4 0.00273,-5.6839e-4 0.00118,-0.00144 6.477e-4,-0.002122 -0.00272,-0.00352 -0.00207,-8.5653e-4 -0.00325,-0.001721 -0.00344,-0.002507 -1.608e-4,-6.7969e-4 -0.00125,-0.00161 -0.00251,-0.002147 -0.00238,-0.001013 -0.00367,-0.001035 -0.014737,-2.4526e-4 l -0.0064,4.5682e-4 -9.637e-4,-0.002193 c -9.222e-4,-0.002098 -0.00225,-0.003844 -0.00537,-0.007077 -7.862e-4,-8.1384e-4 -0.00207,-0.002298 -0.00284,-0.0033 -7.739e-4,-0.001001 -0.00171,-0.001799 -0.00208,-0.001772 -3.701e-4,2.712e-5 -7.423e-4,-2.4372e-4 -8.271e-4,-6.0188e-4 -8.47e-5,-3.5816e-4 -0.00252,-0.00176 -0.00542,-0.003114 -0.00289,-0.001354 -0.0057,-0.002758 -0.00623,-0.003119 -0.00216,-0.001462 -0.00848,-0.004708 -0.00913,-0.004685 -6.646e-4,2.39e-5 -0.0075,-0.00209 -0.00847,-0.002615 -2.57e-4,-1.4089e-4 -0.00206,-5.6871e-4 -0.00402,-9.5022e-4 -0.00195,-3.8212e-4 -0.00371,-8.4068e-4 -0.0039,-0.00102 -8.494e-4,-7.7813e-4 -0.00874,-0.002595 -0.014096,-0.003244 -0.00321,-3.8866e-4 -0.00715,-8.7123e-4 -0.00876,-0.001071 -0.00161,-2.0014e-4 -0.00497,-4.5876e-4 -0.00746,-5.7493e-4 -0.00249,-1.1642e-4 -0.00509,-2.927e-4 -0.00578,-3.9205e-4 -6.945e-4,-9.895e-5 -0.00219,-2.145e-4 -0.00332,-2.5694e-4 -0.00113,-4.245e-5 -0.00428,-2.2824e-4 -0.00702,-4.1174e-4 -0.00463,-3.1307e-4 -0.026175,8.533e-4 -0.027015,0.001462 z m 0.031874,0.005321 c 0.00317,1.8799e-4 0.00762,4.014e-4 0.00988,4.7443e-4 0.00226,7.35e-5 0.00487,2.7513e-4 0.0058,4.4768e-4 9.357e-4,1.7275e-4 0.00395,5.5451e-4 0.00671,8.4795e-4 0.00571,6.0916e-4 0.011436,0.001792 0.018729,0.003869 0.00278,7.9223e-4 0.00667,0.001883 0.00863,0.002424 0.00455,0.001254 0.00948,0.003283 0.00964,0.003972 6.93e-5,2.9292e-4 6.117e-4,5.9746e-4 0.00121,6.7646e-4 5.937e-4,7.927e-5 0.00235,9.4023e-4 0.00389,0.001914 0.00155,9.7259e-4 0.00376,0.00216 0.00492,0.002639 0.00138,5.7141e-4 0.002,0.001173 0.00182,0.001753 -1.555e-4,4.856e-4 1.221e-4,9.8425e-4 6.168e-4,0.001108 4.949e-4,1.2387e-4 9.963e-4,6.3305e-4 0.00111,0.001132 1.18e-4,4.9847e-4 8.556e-4,0.0014 0.00164,0.002003 0.00285,0.002191 0.0049,0.005201 0.00488,0.007152 -1.27e-5,0.001333 0.00101,0.003371 0.0033,0.0066 0.00268,0.003778 0.00383,0.006282 0.006,0.0130979 0.00283,0.008887 0.00439,0.0120318 0.0062,0.0124835 8.672e-4,2.1709e-4 8.911e-4,6.3214e-4 1.133e-4,0.001974 -9.591e-4,0.001659 -0.00191,0.002142 -0.0029,0.001469 -8.001e-4,-5.4564e-4 -0.0042,-0.007484 -0.00507,-0.0103498 -0.00106,-0.003474 -0.00104,-0.00344 -0.00205,-0.00412 -7.307e-4,-4.8762e-4 -0.00131,-3.7039e-4 -0.00347,7.0731e-4 -0.00252,0.00125 -0.00258,0.001383 -0.00195,0.00408 3.594e-4,0.001533 0.00106,0.003112 0.00155,0.003508 0.00107,8.5938e-4 0.00405,0.006455 0.00454,0.008524 2.548e-4,0.001077 -4.136e-4,0.00212 -0.00253,0.003942 -0.00157,0.001362 -0.00374,0.003954 -0.00481,0.005758 -0.00228,0.003855 -0.00402,0.004934 -0.00913,0.00567 -0.00208,2.9876e-4 -0.00465,9.8902e-4 -0.00572,0.001535 -0.00107,5.4545e-4 -0.00347,0.001236 -0.00534,0.001536 -0.00858,0.001378 -0.02016,0.005472 -0.021632,0.007645 -7.55e-4,0.001114 2.83e-4,0.002684 0.00215,0.003252 6.875e-4,2.0926e-4 0.00109,7.1612e-4 9.04e-4,0.001143 -2.835e-4,6.5762e-4 -0.00167,8.5506e-4 -0.00968,0.001377 -0.009,5.8628e-4 -0.00947,6.6441e-4 -0.012246,0.002067 -0.00347,0.001747 -0.00403,0.001812 -0.00703,8.2263e-4 -0.00309,-0.001018 -0.00227,-0.00228 0.00216,-0.003379 0.00535,-0.001324 0.00614,-0.002167 0.00465,-0.004868 -9.675e-4,-0.001743 -0.00174,-0.002381 -0.00326,-0.002669 -0.00109,-2.0896e-4 -0.00245,-5.7304e-4 -0.003,-8.1025e-4 -5.552e-4,-2.3713e-4 -0.00212,-3.4975e-4 -0.00349,-2.4948e-4 -0.00137,1.0028e-4 -0.00286,1.761e-5 -0.00334,-1.8185e-4 -4.724e-4,-2.0009e-4 -0.00235,-4.5851e-4 -0.00416,-5.7478e-4 -0.00181,-1.1626e-4 -0.00461,-3.1733e-4 -0.00621,-4.4803e-4 -0.00159,-1.307e-4 -0.00706,-5.2323e-4 -0.012148,-8.7375e-4 -0.00509,-3.4973e-4 -0.010239,-9.0169e-4 -0.011446,-0.001227 -0.00121,-3.2515e-4 -0.00306,-5.2769e-4 -0.00412,-4.4993e-4 -0.00105,7.702e-5 -0.00336,-2.6301e-4 -0.00512,-7.5634e-4 -0.00604,-0.001686 -0.0095,-2.8561e-4 -0.00861,0.003477 0.00101,0.004262 -0.002,0.004775 -0.00473,8.0727e-4 -8.327e-4,-0.001208 -0.00213,-0.002681 -0.00287,-0.003275 -7.486e-4,-5.9376e-4 -0.00146,-0.001464 -0.00157,-0.001935 -1.137e-4,-4.7004e-4 -7.624e-4,-0.001135 -0.00144,-0.001479 -6.787e-4,-3.4335e-4 -0.00188,-0.001291 -0.00266,-0.002104 -7.843e-4,-8.1399e-4 -0.00223,-0.002236 -0.00323,-0.003158 -0.00337,-0.00314 -0.00345,-0.003428 -0.00138,-0.004607 0.00252,-0.001438 0.00296,-0.001426 0.00489,1.195e-4 9.005e-4,7.1984e-4 0.00202,0.001504 0.00249,0.001742 4.699e-4,2.3791e-4 0.00206,0.001031 0.00354,0.001761 0.00147,7.3102e-4 0.00361,0.002131 0.00474,0.003112 0.00241,0.002094 0.00611,0.00346 0.00795,0.002939 0.00394,-0.00112 0.00362,-0.00268 -0.00114,-0.005552 -0.0016,-9.63e-4 -0.00436,-0.003377 -0.00614,-0.005363 -0.00322,-0.003586 -0.00537,-0.005475 -0.00972,-0.008502 -0.00124,-8.6814e-4 -0.00217,-0.001971 -0.00206,-0.002452 2.699e-4,-0.001198 0.00289,-0.001293 0.00434,-1.5829e-4 6.539e-4,5.123e-4 0.00265,0.001701 0.00445,0.002639 0.00286,0.0015 0.00359,0.001667 0.00602,0.001369 0.00245,-2.9985e-4 0.00275,-4.904e-4 0.00256,-0.001633 -1.302e-4,-8.1106e-4 -0.00127,-0.001894 -0.00306,-0.002903 -0.00157,-8.846e-4 -0.00435,-0.00274 -0.00617,-0.004124 -0.00182,-0.001384 -0.00416,-0.002906 -0.00519,-0.003382 -0.00119,-5.4872e-4 -0.00222,-0.001694 -0.00281,-0.003125 -0.00103,-0.002495 -4.647e-4,-0.003083 0.00327,-0.003368 0.00278,-2.1291e-4 0.00343,-0.001259 0.00249,-0.004038 -4.072e-4,-0.001215 -0.00164,-0.004894 -0.00274,-0.008174 -0.00136,-0.004064 -0.00192,-0.00698 -0.00176,-0.009151 1.295e-4,-0.001752 2.609e-4,-0.003799 3.054e-4,-0.004549 3.6e-5,-7.4961e-4 2.692e-4,-0.001785 5.146e-4,-0.002301 2.491e-4,-5.1623e-4 8.589e-4,-0.001784 0.00135,-0.002815 0.00114,-0.002381 0.00119,-0.00244 0.0048,-0.005673 0.00465,-0.004153 0.011772,-0.007216 0.020674,-0.008883 0.0069,-0.001291 0.024337,-0.002341 0.031679,-0.001908 z m -0.01001,0.0188654 c -0.00272,0.001971 3.803e-4,0.004282 0.00531,0.003964 0.0048,-3.0999e-4 0.014099,1.6389e-4 0.017605,8.974e-4 0.00187,3.8969e-4 0.00385,6.7511e-4 0.00442,6.3369e-4 0.00135,-9.883e-5 0.013293,0.00224 0.013752,0.002693 1.944e-4,1.9153e-4 8.062e-4,3.1505e-4 0.00136,2.7475e-4 0.00143,-1.0464e-4 0.011988,0.004689 0.013529,0.006141 0.00149,0.001401 0.00721,0.003656 0.00895,0.003529 6.522e-4,-4.78e-5 0.00203,-5.7126e-4 0.00307,-0.001164 0.00255,-0.001455 0.00204,-0.003124 -0.00141,-0.004706 -0.0015,-6.855e-4 -0.00281,-0.001544 -0.00289,-0.001907 -8.6e-5,-3.6373e-4 -0.00134,-0.001009 -0.00278,-0.001436 -0.00144,-4.2619e-4 -0.00269,-0.001011 -0.00278,-0.001298 -2.999e-4,-0.001009 -0.011233,-0.004093 -0.020013,-0.005646 -0.00211,-3.7137e-4 -0.00497,-8.7749e-4 -0.00637,-0.001124 -0.00959,-0.001689 -0.016323,-0.002265 -0.023283,-0.001994 -0.00619,2.4164e-4 -0.00747,4.1468e-4 -0.00847,0.001144 z m 0.00264,0.018921 c -0.0036,0.001004 -0.00538,0.002894 -0.00484,0.005146 2.855e-4,0.001207 8.171e-4,0.001606 0.00252,0.001896 0.00344,5.8443e-4 0.00436,3.2045e-4 0.00606,-0.001729 8.788e-4,-0.00106 0.00196,-0.001954 0.00238,-0.001985 0.00107,-7.847e-5 0.00129,0.001134 2.944e-4,0.001587 -4.391e-4,1.9947e-4 -4.688e-4,7.739e-4 -6.58e-5,0.001277 0.00149,0.001861 0.0035,0.005794 0.0047,0.009224 0.00401,0.0113885 0.00539,0.0132004 0.00912,0.0119033 0.00166,-5.7717e-4 0.00175,-9.4584e-4 0.00122,-0.005111 -5.17e-4,-0.004099 -0.00409,-0.0148351 -0.00519,-0.0155833 -2.528e-4,-1.7242e-4 -1.667e-4,-8.4705e-4 1.915e-4,-0.001499 7.668e-4,-0.001406 -5.449e-4,-0.002177 -0.00411,-0.002406 -0.002,-1.2887e-4 -0.00222,-2.9753e-4 -0.00207,-0.001577 3.019e-4,-0.002523 -0.00369,-0.002968 -0.010225,-0.001142 z m 0.028573,0.001371 c -0.00216,0.001678 -0.00161,0.00263 0.00186,0.003152 0.00164,2.4731e-4 0.00353,9.3553e-4 0.00419,0.001529 0.00103,9.143e-4 10e-4,0.001361 -1.506e-4,0.002918 -0.00164,0.002217 -0.00151,0.003184 5.326e-4,0.003832 0.00251,7.9788e-4 0.00585,3.2397e-4 0.00764,-0.001085 0.00191,-0.001496 0.00224,-0.005232 5.868e-4,-0.006514 -5.929e-4,-4.5986e-4 -0.00117,-0.00121 -0.00127,-0.001665 -1.078e-4,-4.5591e-4 -0.00174,-0.00147 -0.00362,-0.002254 -0.00411,-0.001711 -0.00749,-0.001681 -0.00976,8.698e-5 z m -0.038222,0.0340897 c -0.00161,9.834e-4 -0.00234,0.002021 -0.00261,0.003749 -4.952e-4,0.003108 2.403e-4,0.004463 0.00269,0.00493 0.00109,2.0887e-4 0.00245,5.7288e-4 0.003,8.1025e-4 0.00127,5.3888e-4 0.00672,1.6744e-4 0.00861,-5.8666e-4 7.778e-4,-3.1058e-4 0.00213,-0.001517 0.00302,-0.002682 0.002,-0.002637 0.001,-0.004878 -0.0029,-0.006541 -0.00383,-0.001632 -0.00882,-0.001496 -0.011799,3.2223e-4 z m 0.057765,-0.003841 c -8.621e-4,3.2439e-4 -0.00222,0.00131 -0.00302,0.002189 -0.00154,0.001681 -0.00131,0.002221 0.00225,0.005485 0.00306,0.002802 0.010913,0.002606 0.013959,-3.486e-4 0.00212,-0.002053 0.0017,-0.003816 -0.00136,-0.005727 -0.00381,-0.002379 -0.00818,-0.002971 -0.011823,-0.0016 z m 0.063037,-0.0312854 c 1.785e-4,7.545e-4 -0.00186,0.001446 -0.00265,9.0203e-4 -3.153e-4,-2.15e-4 -3.983e-4,-6.0746e-4 -1.845e-4,-8.7213e-4 5.814e-4,-7.1947e-4 0.00267,-7.4152e-4 0.00284,-3.002e-5 z m -0.1777484,0.0260457 c 0.00212,0.002333 0.00216,0.004482 1.593e-4,0.006343 -0.00276,0.002561 -0.00417,0.003476 -0.00503,0.003262 -8.789e-4,-2.1998e-4 -0.00505,-0.003731 -0.0052,-0.004379 -1.516e-4,-6.4096e-4 0.00688,-0.006378 0.00795,-0.006477 5.043e-4,-4.697e-5 0.00146,5.1607e-4 0.00212,0.001252 z m 0.1754563,-0.0105791 c -1.712e-4,3.7369e-4 -3.856e-4,2.8213e-4 -5.466e-4,-2.3345e-4 -1.457e-4,-4.6655e-4 -1.9e-5,-7.4323e-4 2.817e-4,-6.1483e-4 3.007e-4,1.2839e-4 4.199e-4,5.1012e-4 2.649e-4,8.4828e-4 z m -0.010453,0.025168 c 0.00147,0.003262 7.799e-4,0.004026 -0.00249,0.002735 -0.00199,-7.8591e-4 -0.00228,-0.001126 -0.00196,-0.002315 5.394e-4,-0.002026 0.00167,-0.003487 0.00251,-0.003275 4.049e-4,1.0135e-4 0.00128,0.001386 0.00195,0.002854 z m -0.1533461,0.0120816 c 8.418e-4,6.729e-4 0.00163,0.001653 0.00176,0.002178 1.243e-4,5.2506e-4 0.00102,0.001437 0.00199,0.002027 9.691e-4,5.8988e-4 0.00272,0.002225 0.00388,0.003633 0.00426,0.005181 0.012604,0.008649 0.016415,0.006828 0.00157,-7.4913e-4 0.00199,-0.002518 5.785e-4,-0.002415 -3.693e-4,2.706e-5 -0.00121,-4.2744e-4 -0.00186,-0.00101 -0.00162,-0.001449 -2.896e-4,-0.001789 0.0062,-0.001578 0.00282,9.207e-5 0.00682,2.1072e-4 0.00889,2.6405e-4 0.00207,5.334e-5 0.00526,4.119e-4 0.00709,7.968e-4 0.00183,3.8523e-4 0.00376,6.6825e-4 0.00428,6.2973e-4 5.243e-4,-3.842e-5 0.00172,3.3211e-4 0.00267,8.2333e-4 0.00231,0.001206 0.007,0.002543 0.00851,0.002432 6.773e-4,-4.965e-5 0.00127,9.381e-5 0.00133,3.1859e-4 5.32e-5,2.2478e-4 0.00155,7.6927e-4 0.00333,0.00121 0.00178,4.4085e-4 0.00372,9.7698e-4 0.00432,0.001192 5.916e-4,2.1495e-4 0.00292,9.6894e-4 0.00519,0.001674 0.00795,0.002483 0.012982,0.004262 0.01401,0.004957 0.00215,0.001458 -0.00728,0.006314 -0.010009,0.00515 -5.736e-4,-2.4488e-4 -5.565e-4,-4.0076e-4 4.88e-5,-4.4512e-4 5.121e-4,-3.754e-5 0.00123,-5.1129e-4 0.0016,-0.001053 9.646e-4,-0.001422 -0.00137,-0.002739 -0.00552,-0.003112 -0.00184,-1.6599e-4 -0.00543,-9.8901e-4 -0.00796,-0.00183 -0.00559,-0.001858 -0.021471,-0.008544 -0.021602,-0.009097 -1.232e-4,-5.2087e-4 -0.00373,-0.001891 -0.00553,-0.002102 -0.00185,-2.1558e-4 -0.00515,0.001679 -0.00489,0.002799 1.204e-4,5.0895e-4 0.00104,9.7945e-4 0.00224,0.001135 0.00111,1.469e-4 0.00234,6.4412e-4 0.00273,0.001105 6.977e-4,8.2868e-4 0.011562,0.005764 0.016171,0.007347 0.00132,4.5034e-4 0.00365,0.001073 0.00521,0.001382 0.00156,3.0941e-4 0.00487,0.0013 0.00736,0.002201 0.0025,9.0085e-4 0.00514,0.001594 0.00585,0.001542 7.221e-4,-5.293e-5 0.00135,8.096e-5 0.0014,2.9716e-4 1.169e-4,4.9399e-4 -0.00261,0.001135 -0.00589,0.001383 -0.00138,1.0434e-4 -0.00347,5.6462e-4 -0.00464,0.001023 -0.0028,0.001091 -0.00757,0.001419 -0.01119,7.6786e-4 -0.00399,-7.1604e-4 -0.00427,-0.001065 -0.00164,-0.00208 0.00393,-0.001521 0.00129,-0.003951 -0.00387,-0.003572 -0.00152,1.1118e-4 -0.00395,1.262e-5 -0.00542,-2.1837e-4 -0.00147,-2.3099e-4 -0.00365,-5.6347e-4 -0.00486,-7.3882e-4 -0.00121,-1.7496e-4 -0.0052,-0.002016 -0.00886,-0.004091 -0.0077,-0.00437 -0.00874,-0.004797 -0.010444,-0.004283 -0.00219,6.6303e-4 -0.00264,0.002051 -9.879e-4,0.003114 0.00137,8.8812e-4 0.00135,0.001567 -6.32e-5,0.001671 -0.00157,1.1481e-4 -0.00609,-0.001994 -0.00632,-0.002946 -1.362e-4,-5.7567e-4 -6.368e-4,-0.001145 -0.00111,-0.001263 -4.756e-4,-1.1903e-4 -9.796e-4,-7.0234e-4 -0.00112,-0.001297 -2.515e-4,-0.001063 -0.00132,-0.002787 -0.00473,-0.007662 -9.52e-4,-0.001358 -0.00189,-0.003125 -0.00208,-0.003929 -1.899e-4,-8.0274e-4 -0.00124,-0.002154 -0.00233,-0.003003 -0.00182,-0.001411 -0.00296,-0.003286 -0.00203,-0.003354 2.086e-4,-1.529e-5 0.00107,5.2276e-4 0.00191,0.001196 z m 0.1564206,0.001651 c 0.00121,1.5958e-4 0.0027,9.2273e-4 0.00367,0.001881 8.994e-4,8.8719e-4 0.00265,0.001985 0.0039,0.002438 0.00207,7.5629e-4 0.00222,9.7222e-4 0.00182,0.002583 -0.00125,0.004997 -0.00479,0.008199 -0.014428,0.0130334 -0.00178,8.8978e-4 -0.00344,0.001522 -0.00372,0.001406 -2.715e-4,-1.1591e-4 0.00119,-0.002569 0.00324,-0.005452 0.0041,-0.00576 0.00432,-0.007156 0.00119,-0.007812 -0.00328,-6.8816e-4 -0.00529,1.8338e-4 -0.00673,0.002918 -0.00203,0.003855 -0.00695,0.008778 -0.00928,0.009291 -0.00111,2.447e-4 -0.004,3.6294e-4 -0.00642,2.6334e-4 -0.00351,-1.4407e-4 -0.00468,-4.085e-4 -0.00571,-0.0013 -0.00107,-9.1294e-4 -0.00193,-0.001099 -0.00472,-0.001008 -0.00396,1.2922e-4 -0.00753,0.001316 -0.014527,0.004831 -0.0026,0.001306 -0.00518,0.002408 -0.00572,0.002449 -0.00236,1.7764e-4 -9.666e-4,-0.001976 0.00356,-0.005523 0.00145,-0.001131 0.00184,-0.00191 0.00143,-0.002821 -4.921e-4,-0.001097 -8.669e-4,-0.001223 -0.00291,-9.8924e-4 -0.00129,1.4831e-4 -0.00323,7.4718e-4 -0.00431,0.00133 -0.00108,5.8295e-4 -0.00247,9.8581e-4 -0.00308,8.9476e-4 -0.00115,-1.7322e-4 -0.00807,-0.003834 -0.00819,-0.004331 -3.73e-5,-1.5752e-4 0.00104,-6.3547e-4 0.00239,-0.001062 0.00195,-6.1617e-4 0.00575,-9.3168e-4 0.018486,-0.001536 0.01705,-8.0859e-4 0.020495,-0.001313 0.020109,-0.002943 -1.054e-4,-4.4536e-4 -5.807e-4,-9.0713e-4 -0.00106,-0.001026 -4.755e-4,-1.1902e-4 -9.015e-4,-3.727e-4 -9.467e-4,-5.6372e-4 -1.219e-4,-5.1485e-4 0.00346,-0.001658 0.00571,-0.001823 0.00237,-1.7367e-4 0.00285,9.4528e-4 0.00171,0.003949 -0.00111,0.002907 -4.584e-4,0.004883 0.00167,0.005094 9.493e-4,9.419e-5 0.00256,-1.266e-5 0.00358,-2.38e-4 0.00159,-3.5007e-4 0.00206,-0.001096 0.00324,-0.005145 0.00171,-0.005868 0.00183,-0.006041 0.0046,-0.006605 0.00124,-2.5298e-4 0.00344,-8.6857e-4 0.00488,-0.001368 0.00311,-0.001076 0.00387,-0.001169 0.00656,-8.1446e-4 z m 0.00871,-0.0231879 c -7.124e-4,2.9807e-4 -0.00125,7.3214e-4 -0.00119,9.6473e-4 1.381e-4,5.8382e-4 0.00311,3.1526e-4 0.00362,-3.2757e-4 6.555e-4,-8.1125e-4 -9.868e-4,-0.001242 -0.00243,-6.3716e-4 z"
         id="path4143"
         inkscape:connector-curvature="0" />
      <path
         style="fill:#d40000;fill-opacity:1"
         d="m 8.3598597,543.33192 c 2.2061423,-7.13529 9.1996923,-52.82157 13.2931873,-86.83952 1.796407,-14.92857 8.270746,-50.92857 14.387422,-80 6.116674,-29.07142 13.175077,-65.07142 15.685337,-80 4.498609,-26.75332 20.0318,-102.40348 23.026212,-112.14285 1.107174,-3.60111 4.538471,-5 12.264337,-5 18.318145,0 36.138385,-7.92796 48.872195,-21.74252 9.64326,-10.46169 14.41609,-13.24975 26.59816,-15.53734 23.74139,-4.45825 45.30432,-11.34165 49.88817,-15.9255 2.33288,-2.33288 6.97419,-3.85175 10.31404,-3.37526 4.96427,0.70823 6.40766,3.47336 7.90938,15.15205 1.01031,7.85714 3.26031,17.90512 5,22.32885 5.74969,14.62053 4.2374,17.74408 -10.40837,21.49783 -7.46429,1.91312 -20,6.46825 -27.85714,10.1225 l -14.28572,6.64409 -12.21415,-11.13548 c -6.71778,-6.12451 -13.54537,-10.31274 -15.17243,-9.30717 -2.94039,1.81727 19.19498,27.0186 41.63776,47.405 l 11.46311,10.41276 -17.14286,18.24226 c -9.42857,10.03324 -18.44428,20.57883 -20.03491,23.43464 -2.53773,4.55623 -5.21551,2.44568 -21.85625,-17.22645 -24.02683,-28.40372 -32.60042,-36.36889 -36.53172,-33.93921 -1.92231,1.18805 3.53331,9.20901 14.12793,20.77117 l 17.25953,18.83574 -1.72603,34.52816 c -0.94931,18.99049 -4.24168,54.45673 -7.31637,78.81388 -3.0747,24.35714 -6.37637,70.96428 -7.33704,103.57143 -1.16329,39.48391 -2.7933,59.47637 -4.8802,59.85648 -1.72343,0.31394 -21.77637,0.63537 -44.562082,0.71429 -22.785715,0.0788 -48.323903,1.29271 -56.751532,2.69731 -14.3040571,2.38397 -15.2117143,2.19397 -13.6499663,-2.85714 z"
         id="path4145"
         inkscape:connector-curvature="0"
         transform="matrix(0.00175939,0,0,-9.7919217e-4,-1.6710414,0.97797475)" />
      <path
         style="fill:#333333;fill-opacity:1"
         d="m 97.847224,711.45534 c -4.008079,-8.85889 -6.639864,-17.15484 -5.84841,-18.43544 0.791454,-1.2806 5.751084,-4.13006 11.021396,-6.33214 5.27032,-2.20208 11.75884,-7.32546 14.41894,-11.38528 9.16603,-13.98912 20.57538,-8.91385 32.26812,14.35397 l 5.89742,11.73548 -11.0062,3.29753 c -6.0534,1.81365 -17.40916,7.70201 -25.23502,13.08525 l -14.22883,9.78771 -7.287416,-16.10708 z"
         id="path4147"
         inkscape:connector-curvature="0"
         transform="matrix(0.00175939,0,0,-9.7919217e-4,-1.6710414,0.97797475)" />
      <path
         style="fill:#333333;fill-opacity:1"
         d="m 132.53478,779.93848 c -5.21824,-8.96677 -12.43057,-22.68854 -16.02739,-30.49283 l -6.53969,-14.18961 6.53969,-5.12572 c 3.59682,-2.81914 14.1969,-8.86887 23.55572,-13.44384 l 17.01604,-8.31812 5.8411,8.02234 c 3.21261,4.41229 13.23396,16.98953 22.26968,27.94942 9.03571,10.95989 16.42857,21.3468 16.42857,23.08201 0,3.48984 -8.23538,8.49094 -19.68396,11.95349 -4.10239,1.24073 -14.76086,5.54318 -23.68548,9.56098 l -16.22658,7.30509 -9.4877,-16.30321 z"
         id="path4149"
         inkscape:connector-curvature="0"
         transform="matrix(0.00175939,0,0,-9.7919217e-4,-1.6710414,0.97797475)" />
      <path
         style="fill:#666666;fill-opacity:1"
         d="m 141.52345,820.62433 c -3.44908,-5.58073 -5.80296,-10.4855 -5.23086,-10.89949 4.92458,-3.56358 43.86589,-20.44557 54.56254,-23.65417 13.46276,-4.03833 19.3348,-10.16526 19.3348,-20.1741 0,-2.89147 -8.91751,-16.02376 -19.8167,-29.18285 -10.89918,-13.1591 -24.34131,-33.05645 -29.87139,-44.21633 -12.29084,-24.80329 -15.74612,-29.23937 -25.73183,-33.03592 -9.13844,-3.47443 -13.95738,-1.3727 -25.53656,11.13751 -4.45463,4.81281 -9.731169,8.75057 -11.725644,8.75057 -1.994474,0 -7.171425,3.28549 -11.504334,7.30109 -4.332909,4.01561 -8.223123,6.90847 -8.64492,6.42858 -0.421797,-0.47989 -4.302506,-7.94396 -8.623797,-16.58682 -4.321292,-8.64285 -12.337894,-20.70284 -17.814674,-26.79996 -5.476778,-6.09713 -13.0243,-17.78385 -16.77227,-25.9705 -8.726876,-19.062 -18.303871,-56.38189 -16.368184,-63.78397 2.054177,-7.85518 23.372056,-10.2279 69.288474,-7.71192 l 35.978969,1.97147 18.08157,17.57601 c 20.95382,20.36795 37.71626,45.03069 57.77983,85.01203 10.66778,21.25803 20.32841,35.14107 38.29848,55.03772 21.18754,23.45908 41.55441,54.9782 41.55441,64.30828 0,1.76989 -3.60736,3.21799 -8.01635,3.21799 -4.40899,0 -12.33527,3.1864 -17.61396,7.08089 l -9.59761,7.0809 -17.43631,-30.65232 c -9.58996,-16.85878 -31.37119,-51.77844 -48.40273,-77.59923 -17.03153,-25.8208 -33.7004,-54.5454 -37.04193,-63.83245 -7.89646,-21.94648 -30.46254,-48.75978 -30.46254,-36.19597 0,1.66357 3.86283,7.83145 8.58406,13.7064 4.72124,5.87494 11.27271,18.3314 14.55883,27.68101 3.30911,9.41501 20.96815,39.9481 39.58073,68.43646 18.48328,28.29044 38.74559,60.43716 45.02736,71.43716 6.28176,11 13.8491,24.1228 16.81629,29.16178 7.13689,12.1201 3.40591,15.69852 -18.03815,17.30057 -9.09102,0.67918 -24.88626,4.14143 -35.10055,7.6939 -32.84759,11.4242 -33.01954,11.42409 -40.09505,-0.0243 z"
         id="path4151"
         inkscape:connector-curvature="0"
         transform="matrix(0.00175939,0,0,-9.7919217e-4,-1.6710414,0.97797475)" />
    </g>
  </g>
</svg>
