<?xml version="1.0" encoding="UTF-8" standalone="no"?>
<!-- Created with Inkscape (http://www.inkscape.org/) -->

<svg
   xmlns:dc="http://purl.org/dc/elements/1.1/"
   xmlns:cc="http://creativecommons.org/ns#"
   xmlns:rdf="http://www.w3.org/1999/02/22-rdf-syntax-ns#"
   xmlns:svg="http://www.w3.org/2000/svg"
   xmlns="http://www.w3.org/2000/svg"
   xmlns:sodipodi="http://sodipodi.sourceforge.net/DTD/sodipodi-0.dtd"
   xmlns:inkscape="http://www.inkscape.org/namespaces/inkscape"
   width="115.59454mm"
   height="124.1382mm"
   viewBox="0 0 409.58694 439.85976"
   id="svg2"
   version="1.1"
   inkscape:version="0.91 r13725"
   sodipodi:docname="novios.svg">
  <defs
     id="defs4" />
  <sodipodi:namedview
     id="base"
     pagecolor="#ffffff"
     bordercolor="#666666"
     borderopacity="1.0"
     inkscape:pageopacity="0.0"
     inkscape:pageshadow="2"
     inkscape:zoom="0.7"
     inkscape:cx="456.92483"
     inkscape:cy="59.429642"
     inkscape:document-units="px"
     inkscape:current-layer="layer1"
     showgrid="false"
     fit-margin-top="0"
     fit-margin-left="0"
     fit-margin-right="0"
     fit-margin-bottom="0"
     inkscape:window-width="1280"
     inkscape:window-height="776"
     inkscape:window-x="0"
     inkscape:window-y="24"
     inkscape:window-maximized="1" />
  <metadata
     id="metadata7">
    <rdf:RDF>
      <cc:Work
         rdf:about="">
        <dc:format>image/svg+xml</dc:format>
        <dc:type
           rdf:resource="http://purl.org/dc/dcmitype/StillImage" />
        <dc:title />
      </cc:Work>
    </rdf:RDF>
  </metadata>
  <g
     inkscape:label="Layer 1"
     inkscape:groupmode="layer"
     id="layer1"
     transform="translate(-138.2651,-158.46103)">
    <path
       style="fill:#000000"
       d="m 139.05122,596.3959 c -2.10551,-3.9342 -1.63788,-4.4827 23.04634,-27.029 5.76063,-5.2617 12.49887,-11.32206 14.97387,-13.46745 6.55993,-5.68629 13.93054,-12.42638 28.53775,-26.09648 14.36328,-13.44181 20.23585,-18.4683 38.14716,-32.65112 15.17368,-12.01507 34.90435,-29.50588 42.81509,-37.95466 6.39969,-6.83495 32.71648,-30.61507 43.5,-39.30705 11.81556,-9.52385 16.57619,-15.49823 26.65951,-33.4565 10.63334,-18.93784 17.4575,-35.13484 18.53654,-43.9961 0.21441,-1.76081 1.40861,-3.01507 4.05395,-4.25787 2.0625,-0.96897 3.74977,-1.87073 3.7495,-2.0039 -2.8e-4,-0.13317 -0.90926,-2.63308 -2.01995,-5.55535 -1.11069,-2.92227 -1.7454,-5.75662 -1.41047,-6.29856 0.9737,-1.57548 3.20003,0.86911 4.50057,4.94177 0.64458,2.01851 1.51289,4.04281 1.9296,4.49845 0.81454,0.89067 7.9904,-2.44218 17.23983,-8.00707 3.15649,-1.8991 6.15187,-3.19779 6.65639,-2.88597 0.50453,0.31181 1.63444,2.67157 2.51093,5.2439 4.21194,12.36138 -0.93785,26.88119 -12.17264,34.3207 -2.23509,1.48005 -2.24174,1.54656 -0.49949,5 1.51691,3.00679 2.96352,3.96206 10.26573,6.77897 9.68612,3.73652 24.06794,10.14221 25.38278,11.30554 0.48553,0.42958 0.60856,1.49569 0.27339,2.36912 -0.51205,1.33437 -2.17076,0.80713 -10.38279,-3.30027 -5.37536,-2.68858 -10.89838,-5.2312 -12.27338,-5.65027 -1.375,-0.41906 -5.60402,-2.28717 -9.39782,-4.15135 -3.79381,-1.86419 -6.99426,-3.26845 -7.11212,-3.12058 -0.50776,0.63702 -2.60425,46.25669 -2.58588,56.26884 0.0322,17.5295 3.24734,38.33152 7.62138,49.30996 1.38271,3.47048 3.80608,10.89548 5.38527,16.5 1.57919,5.60452 4.09194,12.89004 5.5839,16.19004 4.19396,9.27643 10.08734,26.20253 12.01231,34.5 0.95698,4.125 3.30436,13.125 5.2164,19.99996 4.44516,15.9832 4.53026,16.6263 2.91157,22 l -1.3555,4.5 -43.38975,0 c -28.43573,0 -49.01149,-0.4771 -59.70144,-1.3843 -18.17221,-1.5423 -41.19188,-0.6682 -76.18832,2.8931 -20.47786,2.0838 -30.05148,2.7167 -53,3.5038 -8.525,0.2925 -17.75,0.7645 -20.5,1.049 -2.75,0.2845 -9.275,-0.044 -14.5,-0.7305 -13.89575,-1.8252 -19.88606,-1.7081 -21.4411,0.4189 -1.64637,2.252 -2.24567,2.2038 -3.57911,-0.2877 z m 75.02021,-4.9847 c 11.825,-0.5839 27.29532,-1.7195 34.37848,-2.5235 7.08317,-0.804 23.73317,-2.1801 37,-3.0579 20.10775,-1.3304 26.86709,-1.4 40.62152,-0.418 33.16922,2.368 43.66349,2.7745 51.5,1.9949 4.4,-0.4378 17.56213,-0.5805 29.24919,-0.3172 l 21.24918,0.4786 1.00082,-2.6323 c 1.53243,-4.0306 1.24801,-6.4531 -1.99431,-16.9863 -1.64732,-5.3516 -3.88393,-14.16375 -4.97024,-19.58259 -1.84883,-9.22251 -6.75661,-23.5824 -13.95133,-40.82081 -1.69582,-4.06314 -3.08331,-7.8936 -3.08331,-8.51212 0,-1.54818 -4.31919,-14.91332 -6.98056,-21.60034 -4.8802,-12.26214 -8.75557,-41.58675 -7.74169,-58.58075 0.30908,-5.18059 0.34344,-9.41925 0.0764,-9.41925 -0.26708,0 -1.25453,0.41152 -2.19433,0.91449 -0.93981,0.50297 -5.29773,1.20191 -9.68426,1.55321 -4.38654,0.35129 -8.24597,0.95227 -8.57653,1.33551 -0.33055,0.38323 -1.82579,3.84679 -3.32275,7.69679 -1.49696,3.85 -4.45193,10.17376 -6.56661,14.05279 -4.14644,7.60598 -6.61226,15.6784 -10.06415,32.94721 -1.20934,6.05 -3.71046,16.35392 -5.55803,22.8976 -1.84758,6.54368 -3.99926,16.66868 -4.78152,22.5 -1.36217,10.15423 -3.42931,16.87218 -9.57032,31.1024 -1.54278,3.575 -3.11355,8.66446 -3.49059,11.30991 -0.90838,6.37345 -3.06674,5.71705 -2.98318,-0.90727 0.0573,-4.5436 2.80103,-12.60963 9.35946,-27.51508 1.0618,-2.41316 2.40374,-8.66256 2.9821,-13.88756 0.57835,-5.225 2.34541,-14.225 3.9268,-20 2.97765,-10.87399 6.52261,-25.58748 10.11917,-42 1.49086,-6.80343 3.31725,-11.66682 6.43434,-17.1337 4.1262,-7.2367 10.24801,-21.63318 9.47562,-22.28352 -0.19763,-0.16641 -2.60933,-0.53471 -5.35933,-0.81846 l -5,-0.51591 -5,5.95303 c -2.75,3.27416 -8.92534,10.98077 -13.72297,17.12579 -13.41588,17.18366 -15.29808,19.20279 -25.38997,27.23702 -11.8435,9.42872 -15.49127,13.07507 -27.88706,27.87622 -5.5,6.56726 -14.70648,16.46726 -20.45885,22 -20.78039,19.987 -19.82024,18.91242 -31.62274,35.39156 -4.65949,6.50577 -9.11465,9.41002 -16.57848,10.80722 -4.55972,0.85356 -2.64772,-1.13693 4.38901,-4.5692 3.25327,-1.58683 6.41713,-4.14055 8.27005,-6.67519 1.65055,-2.25783 4.90497,-6.75783 7.23202,-10 5.69446,-7.9338 9.92532,-12.4879 21.87328,-23.54444 10.58107,-9.79163 20.81724,-20.92613 31.52942,-34.29647 4.12729,-5.15145 10.97401,-11.65616 19.46773,-18.49525 7.47531,-6.01908 14.85467,-12.9131 17.18416,-16.05395 10.86761,-14.65284 15.00812,-19.96313 18.3831,-23.5767 6.95269,-7.4442 8.2862,-9.52653 6.73122,-10.51106 -2.16454,-1.37048 -2.61157,-1.1616 -5.43444,2.53938 -1.44996,1.901 -5.86037,6.03426 -9.80089,9.18501 -12.5241,10.01399 -29.50218,25.30772 -49.01218,44.14981 -11.09793,10.718 -28.0384,25.58066 -40.91559,35.89714 -12.08682,9.68328 -27.67844,23.05224 -34.64805,29.70881 -6.96964,6.65658 -17.78085,16.60286 -24.02493,22.10286 -6.24408,5.5 -14.77535,13.20276 -18.95838,17.11726 -4.18302,3.9145 -10.95423,9.9895 -15.04711,13.5 l -7.44162,6.3827 5.94162,0.7506 c 3.26788,0.4129 8.86661,1.163 12.44161,1.6671 6.83615,0.9638 15.78941,0.7988 51,-0.9401 z m 43.18922,-22.7216 c 0.18472,-0.9592 2.58022,-3.1626 5.32332,-4.8965 9.42996,-5.96062 11.11379,-8.02822 20.062,-24.63448 4.80852,-8.92374 10.34981,-18.92498 12.31399,-22.22498 1.96417,-3.3 6.10367,-11.175 9.19889,-17.5 5.83223,-11.91805 10.85046,-19.10076 19.0531,-27.27117 7.41195,-7.38282 9.41425,-10.53983 12.69529,-20.01657 1.90084,-5.49026 4.8477,-11.29532 7.85334,-15.47041 2.64597,-3.67547 5.62827,-7.99357 6.62734,-9.59577 1.34411,-2.15554 2.10866,-2.62093 2.93999,-1.7896 1.37265,1.37265 -0.34613,4.93979 -6.63251,13.76513 -2.39827,3.36689 -5.10521,8.2004 -6.01542,10.74114 -0.91022,2.54075 -2.4034,6.70814 -3.3182,9.26088 -1.13641,3.17116 -4.49498,7.68778 -10.60294,14.25886 -10.38555,11.17302 -15.22506,18.06174 -19.05078,27.11751 -1.5103,3.575 -5.14529,10.55 -8.07774,15.5 -2.93246,4.95 -6.44237,11.25 -7.7998,14 -1.35744,2.75 -5.60869,10.625 -9.44723,17.5 l -6.97916,12.5 -8.41635,5.21216 c -9.29009,5.7532 -10.21771,6.0912 -9.72713,3.5438 z m 128.05424,-2.506 c -2.17218,-2.7113 -5.02066,-9.68937 -7.65385,-18.74996 -1.51848,-5.225 -3.61129,-11.75 -4.65067,-14.5 -3.50313,-9.26854 -4.15232,-17.3224 -2.35743,-29.24635 1.22014,-8.10571 1.42124,-13.21601 0.81671,-20.75365 -0.44111,-5.5 -0.755,-18.55 -0.69753,-29 0.0877,-15.93786 0.44554,-20.28658 2.22057,-26.98295 2.21861,-8.36975 4.27889,-11.7169 6.09455,-9.90124 0.70679,0.70679 0.52776,2.23233 -0.57041,4.86062 -4.65327,11.13684 -6.82718,40.04252 -3.97141,52.80624 1.88439,8.42215 1.77108,15.14595 -0.5386,31.96056 -1.63931,11.93435 -1.10073,15.01931 6.72231,38.50472 5.49883,16.50791 7.34709,20.25201 9.99729,20.25201 0.73975,0 1.34501,0.45 1.34501,1 0,1.44 -5.56767,1.234 -6.75654,-0.25 z m -3.74346,-166.37331 c 3.85,-0.43126 7.45,-0.80494 8,-0.83039 1.92754,-0.0892 2.28086,-1.89827 2.62206,-13.42576 0.59962,-20.25818 0.41129,-26.76033 -0.84644,-29.22307 -0.67341,-1.31858 -2.13798,-4.87243 -3.2546,-7.89743 -3.02312,-8.18981 -3.39691,-8.60539 -6.47747,-7.2018 -1.42982,0.65148 -2.75441,1.75089 -2.94352,2.44315 -4.50218,16.48031 -7.91172,24.79693 -16.82965,41.05118 -3.86026,7.0359 -6.71146,13.09972 -6.33601,13.47517 0.85449,0.8545 15.53303,3.10787 17.56563,2.69659 0.825,-0.16693 4.65,-0.65637 8.5,-1.08764 z m 20.27261,-43.01678 c 3.50242,-2.67143 7.36736,-9.96225 8.55847,-16.14472 0.72169,-3.74591 -1.02225,-13.21515 -2.43382,-13.21515 -0.51535,0 -2.62186,1.0636 -4.68113,2.36356 -2.05927,1.29996 -6.21282,3.6041 -9.23013,5.1203 -3.0173,1.51621 -5.60681,2.86092 -5.75448,2.98825 -0.14766,0.12733 1.25072,4.23569 3.1075,9.1297 1.85678,4.894 3.65097,9.68569 3.98709,10.64819 0.84221,2.41175 2.39941,2.19673 6.4465,-0.89013 z m 74.22739,238.59959 c 0,-0.5722 -0.9672,-2.3487 -2.14933,-3.9476 -2.04019,-2.7595 -2.06484,-3.0361 -0.48538,-5.4466 2.05466,-3.1358 7.94989,-6.225 14.60168,-7.6516 4.75141,-1.019 5.03401,-1.2566 5.05049,-4.2465 0.0198,-3.5929 1.78125,-14.62675 5.13514,-32.16716 2.16241,-11.30913 2.29603,-14.41804 2.32095,-54 0.0145,-23.1 -0.32534,-44.04892 -0.7553,-46.55315 -0.60498,-3.52354 -1.43643,-4.93987 -3.67685,-6.26332 -4.44676,-2.62677 -5.43758,-7.10924 -4.67178,-21.13518 0.3618,-6.62659 0.9263,-13.88935 1.25446,-16.13946 l 0.59664,-4.09111 -11.36036,-0.65716 c -6.2482,-0.36144 -13.16036,-1.0972 -15.36036,-1.63503 -2.2,-0.53783 -7.0375,-0.98861 -10.75,-1.00173 -6.82858,-0.0241 -7.46168,-0.35028 -5.79501,-2.98528 0.80743,-1.27654 2.79801,-1.23241 15.73469,0.34878 15.26254,1.86548 26.75974,2.49655 27.73399,1.52231 0.30552,-0.30553 0.82922,-1.9241 1.16376,-3.59683 l 0.60827,-3.04132 -10.34785,-0.66192 c -10.90712,-0.69769 -31.39691,-5.05493 -33.71617,-7.16989 -2.49515,-2.27535 -0.38082,-3.29161 3.82994,-1.84089 6.17699,2.12815 17.6458,4.15537 27.53838,4.86768 4.95,0.35642 10.11737,0.73476 11.48305,0.84077 2.29759,0.17833 2.64119,-0.40479 4.60021,-7.80727 1.16444,-4.4 3.33518,-11.52482 4.82388,-15.83293 1.48871,-4.30812 2.96328,-9.99906 3.27683,-12.64654 0.67233,-5.67674 0.67075,-5.67415 5.81405,-9.52622 11.01167,-8.24717 26.55412,-17.68828 28.12623,-17.085 4.58086,1.75784 5.82303,13.01097 2.93519,26.59069 -6.63185,31.18554 -6.32236,59.16384 0.95133,86 1.26712,4.675 2.60585,10.81209 2.97497,13.63798 0.5919,4.53149 0.40353,5.38727 -1.59587,7.25 -2.22765,2.07536 -3.2557,2.48594 -5.53537,2.21066 -1.56476,-0.18895 -3.2271,7.74695 -6.26348,29.90136 -1.54766,11.29222 -2.02916,34.75734 -1.00367,48.91273 3.21344,44.35703 3.82556,59.50773 2.45941,60.87383 -1.21833,1.2183 -11.01371,1.7801 -12.85766,0.7374 -1.3927,-0.7875 -2.12173,-0.6051 -3.15679,0.7897 -1.16424,1.5689 -1.88033,1.6697 -5.30621,0.7472 -3.96593,-1.0679 -16.72082,-0.2492 -30.7261,1.9723 -7.48573,1.1874 -7.5,1.1872 -7.5,-0.074 z m 8.07127,-7.0845 c 3.56361,1.2423 12.28039,1.3914 18.34623,0.3139 l 3.9175,-0.696 -3.9175,-2.9964 c -3.43479,-2.6272 -4.71843,-2.9939 -10.4175,-2.9759 -4.98509,0.016 -7.47972,0.5769 -10.70368,2.4081 -4.69379,2.6659 -6.95021,5.782 -2.82627,3.903 1.71552,-0.7816 3.26923,-0.7696 5.60122,0.043 z m 38.28883,-2.7204 c 1.50071,-1.6582 1.6432,-5.1823 1.40499,-34.74997 -0.25799,-32.02325 0.36192,-47.02334 2.32872,-56.34863 0.52849,-2.50578 1.23779,-14.5356 1.57621,-26.73293 l 0.61531,-22.17697 -3.89266,-1.68191 c -2.14097,-0.92505 -7.26767,-2.19686 -11.39267,-2.82625 -4.125,-0.62938 -8.12774,-1.54727 -8.89499,-2.03974 -1.12911,-0.72475 -1.2532,-0.34295 -0.65108,2.00322 1.27002,4.94865 1.76189,73.96105 0.61659,86.51168 -0.58299,6.38853 -1.9894,16.06408 -3.12536,21.50122 -1.13597,5.43715 -2.20405,12.71388 -2.37352,16.17058 -0.16946,3.4567 -0.55176,6.5286 -0.84955,6.8264 -0.29779,0.2978 0.20541,1.8451 1.11823,3.4384 1.72034,3.0028 13.73202,9.9503 17.20339,9.9503 1.01104,0 2.11637,0.45 2.45629,1 0.90619,1.4663 1.98114,1.2309 3.8601,-0.8454 z m 9.52011,-14.1546 c -0.44286,-6.875 -1.27961,-18.57496 -1.85945,-25.99996 -0.57984,-7.425 -1.04672,-16.11406 -1.03751,-19.30902 0.0114,-3.96298 -0.33177,-5.59362 -1.07996,-5.13121 -0.77039,0.47613 -0.99355,10.15528 -0.75,32.52956 0.29707,27.29133 0.56147,31.90353 1.84671,32.21343 3.2509,0.7838 3.70634,-1.4779 2.88021,-14.3028 z m 2.08344,-112.64745 c 1.67398,-8.07418 1.69549,-8.96241 0.24472,-10.10251 -0.87485,-0.6875 -1.93102,-1.25 -2.34706,-1.25 -0.41603,0 -0.76633,4.7863 -0.77843,10.63623 -0.0121,5.84993 0.21816,10.39606 0.51171,10.10252 0.29354,-0.29355 1.35962,-4.51735 2.36906,-9.38624 z m 8.12054,-22.85251 c -0.99869,-4.95 -2.81061,-13.275 -4.0265,-18.5 -4.21649,-18.11943 -4.23256,-46.2731 -0.0383,-67 2.54705,-12.58665 3.75375,-29.40411 2.17963,-30.37697 -1.16306,-0.71881 -22.01281,12.93513 -26.33625,17.24691 -2.5911,2.5841 -3.09628,4.05116 -11.4083,33.13006 -1.33632,4.675 -2.43526,9.0625 -2.4421,9.75 -0.0282,2.84075 1.78621,0.83897 5.43851,-6 2.12949,-3.9875 4.63844,-8.375 5.57545,-9.75 0.937,-1.375 4.27206,-7.45 7.41122,-13.5 3.13917,-6.05 6.05399,-11.35657 6.47737,-11.79238 0.42339,-0.43581 1.35283,-0.0899 2.06542,0.76876 1.07202,1.2917 1.01992,1.8658 -0.30188,3.32636 -0.87863,0.97088 -2.73309,4.33299 -4.12103,7.47137 -1.38794,3.13838 -4.33117,8.68158 -6.5405,12.31822 -2.20934,3.63664 -4.01698,6.7508 -4.01698,6.92034 0,1.11444 -8.78694,15.56846 -11.03476,18.15156 -4.53388,5.21014 -5.37216,9.35215 -5.42077,26.7846 l -0.0445,15.94883 4.5,2.76269 c 2.84932,1.74929 7.06772,3.15011 11.5,3.81883 7.91424,1.19408 17.30866,4.3454 22.5,7.54754 5.15926,3.18236 6.32201,3.41012 8.19999,1.60622 1.5997,-1.53661 1.59287,-2.16388 -0.1158,-10.63294 z M 433.96377,375.54843 c -10.8718,-5.0694 -15.68721,-7.11479 -16.75019,-7.11479 -0.59086,0 -2.55206,-0.62748 -4.35822,-1.3944 -1.80616,-0.76692 -4.56722,-1.90314 -6.13569,-2.52493 -2.33655,-0.92628 -2.63479,-1.39195 -1.65081,-2.57757 1.04532,-1.25953 1.67405,-1.24134 4.85176,0.14041 2.00794,0.87311 5.60443,2.20135 7.9922,2.95165 6.58793,2.07011 23.15861,10.143 23.15861,11.2824 0,1.9819 -1.58662,1.81163 -7.10766,-0.76277 z m 77.31158,-58.23506 c -2.71844,-1.00562 -3.88369,-2.98496 -4.46841,-7.59022 -0.50385,-3.96833 -0.33578,-4.3278 2.92211,-6.25 1.90118,-1.12173 4.60372,-2.03951 6.00564,-2.03951 1.40191,0 4.18869,-1.29769 6.19284,-2.88376 5.53146,-4.37756 10.70742,-6.27224 13.57076,-4.96761 2.05934,0.93829 2.44687,2.01138 3.04973,8.44479 0.43884,4.68314 0.27619,8.62562 -0.44615,10.81435 -1.09856,3.32866 -1.34505,3.46449 -7.3336,4.04134 -3.40826,0.3283 -7.09684,0.56349 -8.19684,0.52264 -1.1,-0.0408 -3.69261,0.0693 -5.76136,0.24486 -2.06875,0.17552 -4.55938,0.0239 -5.53472,-0.33688 z m 3.57735,-4.72339 c 0.92922,-0.58963 1.01533,-1.47845 0.31339,-3.23469 l -0.96789,-2.42165 -0.13367,2.5 c -0.12315,2.30329 -0.20129,2.34263 -0.9931,0.5 -0.76156,-1.77225 -0.86743,-1.68684 -0.92971,0.75 -0.073,2.85657 0.53724,3.28569 2.71098,1.90634 z m 2.15553,-6.5335 c -0.9307,-0.86446 -1.06567,-0.54755 -0.5865,1.37716 0.34232,1.375 0.70055,3.4 0.79608,4.5 0.0955,1.1 0.35946,0.48028 0.5865,-1.37716 0.2298,-1.88002 -0.12311,-3.87493 -0.79608,-4.5 z m 6.99291,3.62716 c -0.0909,-4.8515 -1.29232,-8.09034 -2.3601,-6.36262 -0.99774,1.61437 0.25579,10.11262 1.49166,10.11262 0.5163,0 0.9071,-1.6875 0.86844,-3.75 z m 4.23606,-3.30301 c -0.22625,-4.77754 -0.70782,-6.93297 -1.49067,-6.67202 -0.63605,0.21201 -1.11665,1.24938 -1.06799,2.30526 0.0487,1.05587 0.15696,4.05727 0.24067,6.66977 0.0978,3.05076 0.59939,4.75081 1.40222,4.75225 0.91364,0.002 1.16006,-1.89682 0.91577,-7.05526 z m 2.94457,-0.94699 c -0.70693,-8.68691 -2.60357,-9.77819 -2.20952,-1.2713 0.22857,4.93423 1.68082,10.14004 2.54054,9.10695 0.15362,-0.18461 0.005,-3.71065 -0.33102,-7.83565 z m 4.05884,-2.93496 c -0.39916,-3.2219 -1.22691,-5.58669 -2.05138,-5.86062 -1.07037,-0.35562 -1.2404,0.30272 -0.75367,2.91818 0.34568,1.85757 0.92126,5.11587 1.27906,7.24067 0.9908,5.88396 2.32268,2.13246 1.52599,-4.29823 z m -151.16382,5.18341 c -2.10375,-1.05256 -4.4221,-3.43997 -5.82492,-5.99845 -1.28166,-2.3375 -2.97157,-4.25 -3.75536,-4.25 -0.7838,0 -1.42508,-0.675 -1.42508,-1.5 0,-1.90377 -1.61077,-1.9567 -2.33222,-0.0766 -0.35662,0.92935 0.47393,1.77898 2.39301,2.44798 1.61657,0.56353 2.93921,1.67487 2.93921,2.46964 0,1.73504 -2.69124,2.96761 -3.52699,1.61534 -0.32508,-0.52601 -1.84474,-0.95636 -3.37704,-0.95636 -2.9928,0 -5.44812,-2.14969 -6.53645,-5.72282 -0.60648,-1.99117 -1.13712,-2.15975 -5.09188,-1.61769 -5.11216,0.7007 -9.46764,-1.45345 -9.46764,-4.68254 0,-2.32457 1.53376,-2.63432 2.36163,-0.47695 0.86425,2.25221 2.53104,1.80556 1.92404,-0.51558 -0.72294,-2.76454 -1.87063,-3.27691 -4.35814,-1.94563 -2.69021,1.43975 -6.92753,0.41554 -6.92753,-1.67447 0,-1.12975 0.61392,-1.43704 2.09645,-1.04935 1.15305,0.30153 2.75246,0.2965 3.55425,-0.0112 1.18302,-0.45397 1.04679,-0.9969 -0.72279,-2.88054 -1.67116,-1.77887 -2.01496,-2.97551 -1.47163,-5.12219 0.38992,-1.54059 0.64475,-3.92607 0.56628,-5.30107 -0.0785,-1.375 -0.18332,-4.62223 -0.233,-7.21607 -0.0497,-2.59385 -0.47266,-4.47979 -0.93994,-4.19099 -0.46729,0.2888 -0.84962,1.12368 -0.84962,1.85529 0,2.02803 -3.53864,5.95494 -4.71244,5.22949 -1.62668,-1.00534 3.23903,-13.8098 6.24256,-16.42772 1.41977,-1.2375 3.17956,-2.25 3.91063,-2.25 0.73108,0 2.07952,-1.14509 2.99654,-2.54463 0.91702,-1.39955 2.67167,-2.9265 3.89922,-3.39321 2.01548,-0.76628 11.22579,-0.0798 17.66349,1.31654 1.375,0.29824 4.38064,0.94379 6.67919,1.43455 2.29856,0.49077 4.77356,0.51545 5.5,0.0548 0.72645,-0.46061 2.71616,-0.84436 4.42159,-0.85278 1.70542,-0.008 4.49812,-0.50243 6.20599,-1.0978 2.80734,-0.97864 3.49317,-0.77072 7.14923,2.16737 3.84749,3.09193 5.27218,5.91512 2.98498,5.91512 -0.59578,0 -0.71845,0.54677 -0.28044,1.25 0.42822,0.6875 1.06862,4.03302 1.42311,7.4345 0.50956,4.88942 1.32236,7.04032 3.88143,10.2714 3.11203,3.92927 3.17424,4.18252 1.61285,6.56551 -1.36849,2.08864 -2.40719,2.47866 -6.60098,2.47866 -4.25644,0 -4.97695,-0.28044 -4.97695,-1.93713 0,-1.64147 0.51479,-1.85359 3.37287,-1.38979 1.85508,0.30104 3.65208,0.0956 3.99333,-0.45659 0.34126,-0.55216 -0.50072,-3.45291 -1.87105,-6.44611 -1.37033,-2.9932 -2.78144,-8.21603 -3.13579,-11.60628 -0.35435,-3.39026 -0.91767,-6.14979 -1.25182,-6.1323 -0.33415,0.0175 -1.48105,0.6925 -2.54867,1.5 -1.69265,1.28026 -1.72465,1.4682 -0.25,1.4682 0.93012,0 1.69113,0.45 1.69113,1 0,0.55 -0.36895,1 -0.81989,1 -1.18843,0 -7.18289,5.51289 -7.1648,6.5892 0.008,0.50094 0.41301,0.28273 0.89908,-0.48492 0.48607,-0.76764 1.60418,-1.11926 2.48469,-0.78138 2.0229,0.77626 2.09456,2.6771 0.10092,2.6771 -0.825,0 -1.5,0.45 -1.5,1 0,0.55 -0.87955,1 -1.95455,1 -1.075,0 -3.11445,1.15991 -4.53213,2.57759 -2.24582,2.24582 -2.31603,2.49457 -0.54545,1.93261 3.33409,-1.0582 2.43942,1.94177 -1.46787,4.922 -1.925,1.46827 -3.5,3.26747 -3.5,3.99823 0,0.73075 -2.06383,3.0198 -4.58629,5.08676 -2.83734,2.32499 -4.15912,4.02212 -3.46613,4.45041 0.61609,0.38077 0.85406,1.38575 0.52882,2.23331 -0.32753,0.85352 0.0287,1.77893 0.79847,2.07433 0.7644,0.29332 2.66016,3.04412 4.21281,6.11287 2.35472,4.65402 3.36033,5.68035 6.06236,6.18726 3.92449,0.73623 6.19254,-0.37922 10.31282,-5.07195 3.13494,-3.5705 4.36985,-6.70035 1.88714,-4.78291 -0.6875,0.53097 -3.28603,1.05155 -5.77451,1.15685 -3.3496,0.14173 -5.09046,-0.33581 -6.70395,-1.839 -3.4022,-3.16964 -4.36207,-12.03836 -1.30292,-12.03836 0.56726,0 1.03138,1.50526 1.03138,3.34501 0,5.26538 2.61996,6.94637 9.65759,6.19639 6.70838,-0.71488 7.22349,-1.0904 9.33442,-6.80494 1.60383,-4.34175 4.64273,-5.90539 4.34652,-2.23646 -0.57935,7.17565 -9.90535,21.21804 -16.23678,24.44809 -4.86308,2.48096 -4.74574,2.47708 -9.09639,0.30036 z M 367.86086,296.0345 c -0.70919,-0.76953 -1.44699,-1.24947 -1.63957,-1.06653 -0.59314,0.56346 0.91014,2.46567 1.94858,2.46567 0.53923,0 0.40017,-0.62961 -0.30901,-1.39914 z m -6.78943,-7.63604 c 0,-1.80714 2.18523,-0.97249 2.71025,1.03518 0.52461,2.00609 4.28975,2.8838 4.28975,1 0,-0.55 0.97873,-1 2.17497,-1 2.14423,0 2.14776,-0.0264 0.25,-1.8716 -1.42955,-1.38991 -2.39871,-1.62572 -3.7657,-0.91626 -1.22898,0.63784 -2.81825,0.55044 -4.78206,-0.263 -1.61774,-0.67009 -3.21992,-0.93977 -3.5604,-0.59929 -0.34048,0.34049 -1.24725,-0.16144 -2.01505,-1.11539 -1.23887,-1.53923 -1.32118,-1.3405 -0.73128,1.76554 0.36559,1.925 0.86411,3.83872 1.10781,4.2527 0.57061,0.96935 4.32171,-1.01646 4.32171,-2.28788 z m 6,-7.47296 c 0,-0.69478 -0.59228,-2.40487 -1.31618,-3.80018 -0.92683,-1.78647 -1.7262,-2.28352 -2.70225,-1.68029 -1.99622,1.23373 -3.16751,0.14982 -2.41164,-2.23172 0.58675,-1.84868 0.36783,-1.97414 -2.20932,-1.26618 -1.57334,0.43221 -4.16113,0.83098 -5.75066,0.88617 -6.22022,0.21596 -5.97876,7.10034 0.24904,7.10034 1.84614,0 3.14101,-0.51531 3.14101,-1.25 0,-1.9101 2.12519,-1.48729 2.6521,0.52763 0.64921,2.48257 5.50083,5.1782 7.0979,3.9437 0.6875,-0.53142 1.25,-1.53468 1.25,-2.22947 z m 5.68311,0.32064 c -0.31922,-0.79773 -0.55618,-0.56078 -0.60416,0.60417 -0.0434,1.05416 0.19293,1.64479 0.52522,1.3125 0.33229,-0.3323 0.36781,-1.1948 0.0789,-1.91667 z m 6.12376,-3.33896 c -0.30789,-0.30789 -0.86705,0.24711 -1.24258,1.23333 -0.54268,1.4252 -0.42782,1.54006 0.5598,0.5598 0.68342,-0.67834 0.99067,-1.48524 0.68278,-1.79313 z m -0.31395,-2.46209 c 0.35034,-0.56686 -0.0511,-0.7345 -0.94098,-0.39301 -1.73242,0.66479 -2.04939,1.38156 -0.61096,1.38156 0.51754,0 1.21592,-0.44485 1.55194,-0.98855 z m -6.64108,-4.58742 c 3.68822,-1.83993 5.53736,-4.63483 4.0503,-6.12189 -0.67234,-0.67234 -0.20092,-2.51512 1.42635,-5.57559 1.95712,-3.68084 2.11316,-4.46002 0.80105,-3.99993 -3.73518,1.30975 -6.12954,4.5959 -6.12954,8.41251 0,2.76705 -0.54001,4.07951 -2,4.86087 -1.1,0.5887 -2,1.72953 -2,2.53518 0,1.81225 -0.004,1.81236 3.85184,-0.11115 z m -22.42605,-6.75681 c -0.67688,-1.76392 -2.42579,-2.30393 -2.42579,-0.74901 0,2.1483 1.31688,4.16491 2.16557,3.31622 0.495,-0.495 0.6121,-1.65024 0.26022,-2.56721 z m 38.49265,-0.0352 c 2.58127,-4.17659 2.89319,-7.55045 0.51562,-5.57725 -1.72945,1.43532 -4.43406,6.25135 -4.43406,7.89562 0,2.09037 1.88179,0.977 3.91844,-2.31837 z m -29.91844,1.427 c 0,-0.51754 -0.45,-1.2191 -1,-1.55902 -0.55,-0.33992 -1,-1.94148 -1,-3.55902 0,-3.21604 -0.74106,-3.59719 -3.28771,-1.69098 -1.54575,1.15702 -1.51547,1.49174 0.40707,4.5 1.94058,3.03648 4.88064,4.42741 4.88064,2.30902 z m 10.33389,-3.76464 c 0.47823,-2.56206 0.30229,-3.092 -0.8764,-2.63969 -1.72605,0.66235 -2.96062,4.72221 -1.93877,6.37561 0.97493,1.57747 2.10274,0.0808 2.81517,-3.73592 z m 15.28322,-1.52542 c 4.86307,-7.13722 4.9154,-7.25535 2.44872,-5.52762 -2.5712,1.80094 -7.21823,9.75866 -5.69872,9.75866 0.20192,0 1.66442,-1.90397 3.25,-4.23104 z m -19.21503,-4.76896 c 4.19127,-5.49596 4.7099,-5.74517 7.06177,-3.39329 1.3883,1.38829 2.03765,1.4282 4.77686,0.29358 1.74359,-0.72221 4.27778,-1.33273 5.63153,-1.3567 1.35376,-0.024 2.61532,-0.50562 2.80348,-1.07033 0.20107,-0.60347 -1.51538,-1.01572 -4.16362,-1 -2.92191,0.0173 -4.50685,0.46613 -4.50891,1.27674 -0.005,2.10111 -2.00645,1.39957 -4.5164,-1.58333 -1.65865,-1.9712 -3.31257,-2.83334 -5.43544,-2.83334 -1.67824,0 -3.05135,0.375 -3.05135,0.83334 0,0.45833 0.45,0.83333 1,0.83333 0.55,0 1,0.675 1,1.5 0,0.825 -0.62373,1.5 -1.38606,1.5 -1.47284,0 -4.61394,5.71937 -4.61394,8.40113 0,2.70718 1.4308,1.80635 5.40208,-3.40113 z m -10.33134,-1.19342 c 1.32684,0.21927 2.29286,-0.74102 3.3922,-3.37212 0.84538,-2.02329 1.53706,-4.33625 1.53706,-5.13992 0,-2.07461 -2.31471,-1.07519 -3.47945,1.50231 -0.53869,1.19211 -2.30947,2.63112 -3.93506,3.19781 -1.62559,0.56668 -3.76815,1.76566 -4.76125,2.6644 -1.71192,1.54927 -1.71529,1.70034 -0.0649,2.91117 1.44386,1.05933 2.05749,0.9917 3.5985,-0.39656 1.02179,-0.92052 2.69261,-1.53571 3.71293,-1.36709 z m 44.99391,-8.14193 c -0.7825,-0.7825 -1.71386,-0.45856 -3.32576,1.15673 l -2.23889,2.2436 3.32576,-1.15673 c 2.3944,-0.83279 3.02139,-1.4611 2.23889,-2.2436 z m 103.71049,47.77655 c -3.91601,-2.12515 -4.77514,-4.38768 -4.77514,-12.57546 0,-8.88403 1.77334,-8.2292 2.44615,0.90329 0.67103,9.10837 1.54363,10.23097 7.95254,10.23097 7.30661,0 15.60223,-1.69086 17.72624,-3.61306 0.97018,-0.87801 1.90147,-2.9771 2.06952,-4.66465 0.37845,-3.80031 2.80555,-4.97052 2.80555,-1.35268 0,6.17647 -3.61912,9.38271 -13.04205,11.55418 -6.23602,1.43707 -11.98199,1.25443 -15.18281,-0.48259 z m 3.74592,-8.40713 c -0.32834,-0.53125 0.99016,-1.99375 2.93,-3.25 5.3862,-3.48812 6.84417,-7.45456 6.01044,-16.35165 -0.38306,-4.08783 -0.30611,-7.42553 0.17101,-7.41711 3.69265,0.0652 5.37954,6.05998 4.21658,14.98469 -0.62364,4.78595 -1.26129,5.98685 -4.9115,9.25 -4.11104,3.67511 -7.22851,4.70633 -8.41653,2.78407 z m 26.75678,-6.34105 c -4.1926,-2.17767 -5.42434,-3.684 -3.02784,-3.70285 1.68114,-0.0132 5.01326,-10.12691 3.75201,-11.38816 -0.60634,-0.60634 -1.67024,-0.30725 -2.91537,0.81958 -2.78834,2.52341 -4.48146,1.11061 -2.42687,-2.02508 1.23297,-1.88176 1.35375,-2.78299 0.48888,-3.64786 -0.86487,-0.86487 -1.14865,-0.85218 -1.14865,0.0513 0,0.66 -0.45,1.2 -1,1.2 -0.55,0 -1,-1.33588 -1,-2.96862 0,-2.35799 -0.34228,-2.83726 -1.66404,-2.33006 -1.2359,0.47426 -1.45545,0.27322 -0.8533,-0.78138 0.6565,-1.1498 0.55454,-1.18213 -0.53596,-0.16994 -2.02074,1.87564 -3.04505,1.51357 -2.82902,-1 0.37421,-4.35418 -0.14982,-5.53714 -3.62813,-8.19017 l -3.51045,-2.67755 -0.85213,2.30352 c -0.46867,1.26694 -1.47647,2.31302 -2.23955,2.32461 -0.76308,0.0116 -3.77544,0.62751 -6.69413,1.36868 -4.81803,1.2235 -5.27847,1.58237 -5,3.897 0.16869,1.40218 -0.25579,2.73867 -0.94329,2.96999 -0.73459,0.24717 -1.25,-0.43843 -1.25,-1.66275 0,-1.64814 -0.62667,-2.08333 -3,-2.08333 -2.83333,0 -3,-0.22222 -3,-4 0,-2.2 0.45,-4 1,-4 0.55,0 1.00277,-1.6875 1.00616,-3.75 0.003,-2.0625 0.6517,-4.9875 1.4407,-6.5 1.30808,-2.50759 1.27754,-2.75 -0.34645,-2.75 -1.33326,0 -2.11436,1.38966 -3.1071,5.52787 -1.6247,6.77255 -3.48886,6.61518 -3.50584,-0.29595 -0.0135,-5.49246 1.11593,-7.50889 5.95479,-10.63136 2.59729,-1.67601 11.79485,-3.55227 18.34223,-3.74173 1.77623,-0.0514 2.15059,-0.48802 1.68262,-1.96247 -0.67911,-2.13969 1.03283,-2.64187 1.83955,-0.53961 0.52909,1.3788 6.97151,2.88474 11.91078,2.78419 3.09999,-0.0631 4.70127,1.67323 2.68964,2.91649 -0.74204,0.4586 -1.13719,0.97651 -0.87812,1.1509 0.25907,0.17438 2.27104,1.30222 4.47104,2.50629 2.87119,1.57142 4,2.83775 4,4.4873 0,1.63925 0.66178,2.39188 2.30837,2.62528 1.90341,0.2698 2.09505,0.58425 1.09239,1.79238 -0.92104,1.10979 -0.9352,1.74598 -0.0584,2.6228 0.63669,0.63669 1.15762,2.11418 1.15762,3.28331 0,1.16912 1.125,3.18256 2.5,4.47431 2.62748,2.46839 3.30555,5 1.3392,5 -0.63844,0 -2.43844,-1.43105 -4,-3.18011 l -2.83918,-3.18011 0.0333,2.93011 c 0.0378,3.33089 3.00434,7.43011 5.37702,7.43011 1.79257,0 2.12926,1.54851 0.54903,2.52514 -0.57237,0.35375 -0.74614,1.57119 -0.38614,2.70542 0.54864,1.72863 0.31256,1.97282 -1.45933,1.50946 -1.60589,-0.41995 -2.11385,-0.0947 -2.11385,1.3536 0,2.04059 1.47563,2.56384 2.51008,0.89007 1.22631,-1.98421 2.3312,0.0797 1.48812,2.77979 -1.82308,5.83863 -4.80863,12.67069 -5.63338,12.89126 -0.47565,0.12721 -2.76479,-0.75557 -5.08698,-1.96172 z m 4.72216,-5.25204 c 0,-0.85746 -0.45,-1.2809 -1,-0.94098 -0.55,0.33992 -1,1.04148 -1,1.55902 0,0.51754 0.45,0.94098 1,0.94098 0.55,0 1,-0.70156 1,-1.55902 z m -0.0153,-6.69098 c -0.0124,-1.81944 -0.20082,-1.96296 -0.98469,-0.75 -1.25292,1.93876 -1.25292,3 0,3 0.55,0 0.99311,-1.0125 0.98469,-2.25 z m -3.03272,-7 c -0.0963,-2.50689 -3.5013,-8.23211 -5.07628,-8.53542 -1.33721,-0.25753 -1.18444,0.56423 0.8806,4.73692 2.36832,4.78551 4.30083,6.53508 4.19568,3.7985 z m 4.23136,-0.96667 c -0.71756,-0.71756 -1.18333,-0.7766 -1.18333,-0.15 0,1.33478 1.18261,2.51739 1.85,1.85 0.28417,-0.28416 -0.0158,-1.04916 -0.66667,-1.7 z m -3.19864,-8.53333 c -0.008,-0.4125 -0.45153,-1.425 -0.98469,-2.25 -0.78387,-1.21296 -0.9723,-1.06944 -0.98469,0.75 -0.008,1.2375 0.43469,2.25 0.98469,2.25 0.55,0 0.99311,-0.3375 0.98469,-0.75 z m -6.42739,-1.66824 c 1.06675,-0.78003 1.6413,-1.71649 1.27677,-2.08102 -0.84279,-0.84279 -4.83407,1.24978 -4.83407,2.53444 0,1.36334 1.29921,1.19773 3.5573,-0.45342 z m -3.73775,-4.41009 c 0.17575,-1.19442 -0.16175,-2.17167 -0.75,-2.17167 -0.58825,0 -1.06955,0.4132 -1.06955,0.91821 0,0.50502 -0.29671,1.69142 -0.65935,2.63645 -0.46278,1.20598 -0.23918,1.57967 0.75,1.25346 0.77514,-0.25563 1.55315,-1.44203 1.7289,-2.63645 z m -9.70356,-6.6257 c -2.0195,-5.32018 -3.11599,-6.64739 -3.11599,-3.77165 0,2.77894 -1.63351,3.70297 -2.81475,1.59222 -1.09578,-1.95806 -4.18525,-1.18809 -4.18525,1.04306 0,2.01975 1.5264,2.7904 5.52686,2.7904 1.86683,0 3.91709,0.63 4.55613,1.4 1.8343,2.21019 1.83975,1.70567 0.033,-3.05403 z m 6.13864,-0.29597 c -0.25774,-0.6875 -0.81295,-1.25 -1.23381,-1.25 -0.42086,0 -1.03803,-1.6875 -1.37149,-3.75 -0.70348,-4.3511 -4.9483,-9.45624 -7.15771,-8.60841 -2.56041,0.98252 -1.54072,4.43414 1.65772,5.61134 0.90714,0.33388 2.21287,2.32605 2.90163,4.42706 0.68875,2.10101 1.94653,4.88704 2.79506,6.19119 1.43334,2.20296 1.59012,2.23843 2.20999,0.5 0.36697,-1.02915 0.45634,-2.43368 0.19861,-3.12118 z m 5.69741,1.19221 c -1.77574,-2.13963 -2.33559,-1.02739 -0.86551,1.71948 0.79004,1.47619 1.40539,1.86255 1.67557,1.05202 0.23484,-0.70452 -0.12969,-1.9517 -0.81006,-2.7715 z m -26.15471,0.70421 c 2.14614,-1.36139 -1.12549,-3.35314 -4.22855,-2.57433 -2.09578,0.52601 -2.39168,0.93637 -1.47321,2.04306 1.28415,1.54731 3.73941,1.77608 5.70176,0.53127 z m 22.5643,-4.64642 c 0.35062,-0.91371 0.002,-1.5 -0.89301,-1.5 -0.80774,0 -1.46862,0.675 -1.46862,1.5 0,0.825 0.40186,1.5 0.89301,1.5 0.49116,0 1.15203,-0.675 1.46862,-1.5 z m -24.36163,-2.19032 c 0,-1.96839 -2.41213,-1.09701 -2.82265,1.01968 -0.225,1.16012 0.15332,1.48098 1.25,1.06014 0.86496,-0.33191 1.57265,-1.26783 1.57265,-2.07982 z m 28,0.69032 c 0,-0.55 -0.47656,-1 -1.05902,-1 -0.58246,0 -0.7809,0.45 -0.44098,1 0.33992,0.55 0.81648,1 1.05902,1 0.24254,0 0.44098,-0.45 0.44098,-1 z m -24.18603,-4.1892 c -0.26497,-2.69143 0.0747,-3.2834 2.17595,-3.79271 1.61721,-0.39197 2.06959,-0.86328 1.29068,-1.34467 -1.39009,-0.85912 -4.99152,1.13086 -5.78397,3.19594 -0.70183,1.82897 0.35015,5.13064 1.63473,5.13064 0.54812,0 0.85529,-1.43514 0.68261,-3.1892 z m 22.18603,0.31164 c 0,-1.44535 -2.83381,-3.34319 -3.9562,-2.64951 -2.02247,1.24995 -1.08233,3.52707 1.4562,3.52707 1.375,0 2.5,-0.3949 2.5,-0.87756 z m -188.42707,47.30763 c -3.13157,-3.13157 -3.27432,-9.43007 -0.21372,-9.43007 0.834,0 1.63085,1.34386 1.92712,3.25 0.27782,1.7875 0.82954,4.2625 1.22603,5.5 0.84705,2.64373 -0.63328,2.98622 -2.93943,0.68007 z m 158.67707,-7.27474 c -5.88939,-1.62061 -6.4339,-2.91417 -3,-7.12701 1.2375,-1.51821 2.83059,-3.60818 3.54019,-4.64436 1.13754,-1.66106 1.22468,-1.46987 0.73653,1.61604 -0.30452,1.925 -1.2226,3.99961 -2.04019,4.61024 -2.27284,1.69752 -1.77966,3.11328 1.26347,3.62699 1.5125,0.25533 3.41432,0.64391 4.22626,0.8635 0.92601,0.25045 1.60494,-0.44491 1.82149,-1.86556 0.43689,-2.86608 2.20225,-1.89835 2.20225,1.20722 0,3.05775 -2.25714,3.49962 -8.75,1.71294 z m -98.77707,-1.19913 c -0.93716,-1.51635 1.60294,-4.28033 2.81747,-3.0658 1.12151,1.12151 0.24899,4.1096 -1.2,4.1096 -0.5348,0 -1.26266,-0.46971 -1.61747,-1.0438 z m 48.52707,-5.89718 c 0,-1.06754 0.45,-2.2191 1,-2.55902 0.55,-0.33992 0.99578,-2.72898 0.99062,-5.30902 -0.007,-3.50363 -0.82963,-6.05451 -3.25,-10.07799 -1.78234,-2.96286 -3.79649,-6.33786 -4.47588,-7.5 -1.9188,-3.28224 -1.47602,-8.61722 1.19056,-14.34472 2.34839,-5.04408 2.37988,-5.39572 0.87776,-9.80419 -2.44551,-7.17719 0.089,-7.47742 3.68123,-0.43607 2.5413,4.98137 2.50197,5.91163 -0.51429,12.16405 -2.94944,6.11389 -3.0487,9.22758 -0.42425,13.30794 7.0418,10.94821 8.67867,18.9999 4.85167,23.86514 -2.45403,3.11979 -3.92742,3.38011 -3.92742,0.69388 z m -47.51524,-2.10703 c -0.75863,-2.39025 0.73762,-4.55062 2.42811,-3.50584 1.51408,0.93575 1.35647,3.08543 -0.32877,4.48405 -1.13371,0.9409 -1.55211,0.74594 -2.09934,-0.97821 z m 104.21648,-4.58409 c -1.43642,-1.43642 -0.63133,-4.25531 1.39942,-4.89985 2.83016,-0.89826 4.71686,1.01141 3.26968,3.30947 -1.18743,1.88561 -3.56428,2.6952 -4.6691,1.59038 z m -74.89471,-63.196 c -8.73749,-6.68916 -13.81762,-14.10161 -13.77057,-20.09269 0.0737,-9.3855 9.27898,-14.95982 17.08729,-10.34733 2.90582,1.71651 2.95222,1.70631 5.22956,-1.14975 2.11445,-2.65177 2.68793,-2.83764 7.18946,-2.33026 6.54761,0.73801 9.45773,3.98746 9.45773,10.5605 0,7.08985 -1.43156,10.80267 -7.67049,19.89369 -7.02146,10.2313 -8.34413,10.49291 -17.52298,3.46584 z m 11.2069,-2.4219 c 4.10369,-4.46765 9.98657,-16.34458 9.98657,-20.16185 0,-7.24241 -6.65049,-10.2573 -10.6609,-4.83294 -1.40185,1.89611 -1.79421,3.3772 -1.25834,4.75 1.28161,3.28322 1.02299,4.49479 -0.95944,4.49479 -1.15008,0 -2.367,-1.17892 -3.13782,-3.03983 -2.52726,-6.10135 -8.31407,-7.72051 -12.52895,-3.50563 -3.29299,3.29299 -3.10478,6.85706 0.67298,12.7442 2.44203,3.80557 12.66614,12.80126 14.54936,12.80126 0.19322,0 1.69466,-1.4625 3.33654,-3.25 z"
       id="path3347"
       inkscape:connector-curvature="0" />
    <path
       style="fill:#ff0000"
       d="M 295.50371,33.744564 C 289.41166,29.65065 282.81109,22.600035 280.9977,18.249497 c -1.722,-4.131273 -0.62792,-7.68558 3.06907,-9.9704455 2.0337,-1.2568959 3.86902,-1.3247005 6.11487,-0.2259093 2.0123,0.9845261 3.31308,2.4689778 4.64016,5.2953548 1.05823,2.253804 3.01657,3.329244 4.43115,2.433407 0.49077,-0.310793 0.4597,-1.229114 -0.17152,-5.070943 -0.39526,-2.4056684 1.9593,-5.5943397 4.68711,-6.3475221 2.86844,-0.7920161 5.80769,1.4737969 6.61991,5.1031715 0.38784,1.7330586 0.36501,2.3053906 -0.16885,4.2327466 -0.88627,3.199648 -3.10033,8.027674 -5.6249,12.265785 -2.18406,3.666468 -6.38026,8.712927 -7.24492,8.712927 -0.25132,0 -1.08205,-0.420077 -1.84607,-0.933505 z"
       id="path3334"
       inkscape:connector-curvature="0"
       transform="translate(138.26508,158.46103)" />
  </g>
</svg>
